<svg width="102" height="65" viewBox="0 0 102 65" fill="none" xmlns="http://www.w3.org/2000/svg">
<path d="M102 42.08H101V4.28C101 3.41009 100.654 2.57581 100.039 1.96069C99.4242 1.34557 98.5899 1 97.72 1H4.28C3.41009 1 2.57581 1.34557 1.96069 1.96069C1.34557 2.57581 1 3.41009 1 4.28V42.08H0V58.08H1V61.72C1 62.5899 1.34557 63.4242 1.96069 64.0393C2.57581 64.6544 3.41009 65 4.28 65H97.72C98.5899 65 99.4242 64.6544 100.039 64.0393C100.654 63.4242 101 62.5899 101 61.72V58.08H102V42.08Z" fill="#983884"/>
<path d="M102 41.08H101V3.28C101 2.41009 100.654 1.57581 100.039 0.96069C99.4242 0.34557 98.5899 0 97.72 0L4.28 0C3.41009 0 2.57581 0.34557 1.96069 0.96069C1.34557 1.57581 1 2.41009 1 3.28V41.08H0V57.08H1V60.72C1 61.5899 1.34557 62.4242 1.96069 63.0393C2.57581 63.6544 3.41009 64 4.28 64H97.72C98.5899 64 99.4242 63.6544 100.039 63.0393C100.654 62.4242 101 61.5899 101 60.72V57.08H102V41.08Z" fill="#F8D41F"/>
<path d="M95.76 45.3899V12.7099C95.7613 11.6896 95.5616 10.6789 95.1723 9.73572C94.7831 8.79252 94.2118 7.93522 93.4913 7.21278C92.7707 6.49034 91.9149 5.9169 90.9727 5.52521C90.0305 5.13352 89.0203 4.93124 88 4.92993H14C11.9366 4.92993 9.95771 5.74961 8.49868 7.20864C7.03965 8.66767 6.21997 10.6465 6.21997 12.7099V45.3899H95.76Z" fill="#EAE6DD"/>
<path d="M71.4899 20.77H30.5099C26.1579 20.77 22.6299 24.2958 22.6299 28.645C22.6299 32.9943 26.1579 36.52 30.5099 36.52H71.4899C75.8419 36.52 79.3699 32.9943 79.3699 28.645C79.3699 24.2958 75.8419 20.77 71.4899 20.77Z" fill="#EFCB08"/>
<path d="M62.71 23.53H51V30.08H62.71V23.53Z" fill="#3E3E3E"/>
<path d="M51 23.53H39.29V30.08H51V23.53Z" fill="#7D3C6E"/>
<path d="M71.3701 33.6499C74.1315 33.6499 76.3701 31.4113 76.3701 28.6499C76.3701 25.8885 74.1315 23.6499 71.3701 23.6499C68.6087 23.6499 66.3701 25.8885 66.3701 28.6499C66.3701 31.4113 68.6087 33.6499 71.3701 33.6499Z" fill="#7D3C6E"/>
<path d="M30.6299 33.6499C33.3913 33.6499 35.6299 31.4113 35.6299 28.6499C35.6299 25.8885 33.3913 23.6499 30.6299 23.6499C27.8685 23.6499 25.6299 25.8885 25.6299 28.6499C25.6299 31.4113 27.8685 33.6499 30.6299 33.6499Z" fill="#7D3C6E"/>
<path d="M79.72 49.4301C79.6465 49.1295 79.4748 48.8619 79.232 48.6699C78.9893 48.4779 78.6894 48.3724 78.3799 48.3701H21.62C21.3105 48.3724 21.0106 48.4779 20.7679 48.6699C20.5251 48.8619 20.3534 49.1295 20.28 49.4301L16.7 64.0001H83.3L79.72 49.4301Z" fill="#F7C30A"/>
<path d="M81.72 49.4301C81.6465 49.1295 81.4748 48.8619 81.232 48.6699C80.9893 48.4779 80.6894 48.3724 80.3799 48.3701H23.62C23.3105 48.3724 23.0106 48.4779 22.7679 48.6699C22.5251 48.8619 22.3534 49.1295 22.28 49.4301L18.7 64.0001H85.3L81.72 49.4301Z" fill="#FADE48"/>
<path d="M80.72 49.4301C80.6465 49.1295 80.4748 48.8619 80.232 48.6699C79.9893 48.4779 79.6894 48.3724 79.3799 48.3701H22.62C22.3105 48.3724 22.0106 48.4779 21.7679 48.6699C21.5251 48.8619 21.3534 49.1295 21.28 49.4301L17.7 64.0001H84.3L80.72 49.4301Z" fill="#F9D617"/>
<path d="M27.3899 61.8999C28.4945 61.8999 29.3899 61.0045 29.3899 59.8999C29.3899 58.7953 28.4945 57.8999 27.3899 57.8999C26.2853 57.8999 25.3899 58.7953 25.3899 59.8999C25.3899 61.0045 26.2853 61.8999 27.3899 61.8999Z" fill="#7D3C6E"/>
<path d="M37.4199 59.8999C38.5245 59.8999 39.4199 59.0045 39.4199 57.8999C39.4199 56.7953 38.5245 55.8999 37.4199 55.8999C36.3154 55.8999 35.4199 56.7953 35.4199 57.8999C35.4199 59.0045 36.3154 59.8999 37.4199 59.8999Z" fill="#7D3C6E"/>
<path d="M64.6699 59.8999C65.7745 59.8999 66.6699 59.0045 66.6699 57.8999C66.6699 56.7953 65.7745 55.8999 64.6699 55.8999C63.5654 55.8999 62.6699 56.7953 62.6699 57.8999C62.6699 59.0045 63.5654 59.8999 64.6699 59.8999Z" fill="#7D3C6E"/>
<path d="M74.6101 61.8999C75.7147 61.8999 76.6101 61.0045 76.6101 59.8999C76.6101 58.7953 75.7147 57.8999 74.6101 57.8999C73.5055 57.8999 72.6101 58.7953 72.6101 59.8999C72.6101 61.0045 73.5055 61.8999 74.6101 61.8999Z" fill="#7D3C6E"/>
</svg>
