<svg width="24" height="24" viewBox="0 0 24 24" fill="none" xmlns="http://www.w3.org/2000/svg">
<path fill-rule="evenodd" clip-rule="evenodd" d="M6.38033 1H6.41412H8.40179V2.5H6.45749C6.38495 2.51181 6.32836 2.5456 6.2939 2.58335C6.25749 2.62324 6.24808 2.66317 6.25034 2.69411L6.25234 2.72144V2.74883V9.3513V9.3787L6.25034 9.40602C6.24808 9.43697 6.25749 9.4769 6.2939 9.51679C6.32836 9.55453 6.38496 9.58832 6.45749 9.60014H8.36532V11.1001H6.41412H6.38033L6.34667 11.0971C5.90663 11.0574 5.48835 10.8592 5.18606 10.5281C4.889 10.2026 4.72841 9.77368 4.75234 9.32809V2.77204C4.72841 2.32645 4.889 1.8975 5.18606 1.57207C5.48835 1.24091 5.90663 1.04277 6.34667 1.00304L6.38033 1ZM11.6744 2.5C11.4057 2.5 11.2847 2.68945 11.2847 2.80809V13.1943C11.2847 13.3129 11.4057 13.5024 11.6744 13.5024H17.1086C17.3773 13.5024 17.4983 13.3129 17.4983 13.1943V2.80809C17.4983 2.68945 17.3773 2.5 17.1086 2.5H11.6744ZM9.78469 2.80809C9.78469 1.75799 10.6842 1 11.6744 1H17.1086C18.0988 1 18.9983 1.75799 18.9983 2.80809V13.1943C18.9983 14.2444 18.0988 15.0024 17.1086 15.0024H11.6744C10.6842 15.0024 9.78469 14.2444 9.78469 13.1943V2.80809ZM14.7755 3.96802H13.882C13.5949 3.96802 13.3623 4.18403 13.3623 4.45051V5.56785C13.3623 5.83432 13.5949 6.05033 13.882 6.05033H14.7755C15.0625 6.05033 15.2952 5.83432 15.2952 5.56785V4.45051C15.2952 4.18403 15.0625 3.96802 14.7755 3.96802ZM12.9422 7.74292H15.7049C16.007 7.74292 16.2519 7.97031 16.2519 8.2508V11.7721C16.2519 12.0526 16.007 12.28 15.7049 12.28H12.9422C12.6401 12.28 12.3951 12.0526 12.3951 11.7721V8.2508C12.3951 7.97031 12.6401 7.74292 12.9422 7.74292ZM6.46813 15.0022H8.40109V13.5022H6.46813V15.0022Z" fill="#1CD75F"/>
<circle cx="12" cy="20" r="2" fill="#1CD75F"/>
</svg>
