<svg xmlns="http://www.w3.org/2000/svg" viewBox="0 0 80 80"><defs><style>.cls-1{fill:#fff;}</style></defs><g id="레이어_2" data-name="레이어 2"><g id="레이어_1-2" data-name="레이어 1"><path class="cls-1" d="M75.17,20.93a37.93,37.93,0,0,0-2-3.29A40,40,0,0,0,63.93,8,39.55,39.55,0,0,0,53.75,2.43C52.53,2,51.27,1.59,50,1.26A40,40,0,0,0,10.39,13.1c-.86,1-1.68,1.94-2.44,3s-1.49,2.09-2.16,3.19-1.28,2.23-1.85,3.4S2.88,25,2.43,26.25a40.12,40.12,0,0,0,0,27.5c.45,1.23.95,2.43,1.51,3.59s1.18,2.3,1.85,3.4S7.18,62.91,8,63.93s1.58,2,2.44,3A40.08,40.08,0,0,0,50,78.74c1.27-.33,2.53-.72,3.75-1.17a39.55,39.55,0,0,0,10.18-5.52,40,40,0,0,0,9.24-9.69,37.93,37.93,0,0,0,2-3.29,40.06,40.06,0,0,0,0-38.14ZM56.39,59.3a39.43,39.43,0,0,0-17.06-6.4c-6-.8-13.13-.78-18.84,1.65a2.54,2.54,0,0,1-3.4-.89,2.49,2.49,0,0,1,.89-3.4c6.62-2.83,14.27-3.21,21.35-2.33A44.19,44.19,0,0,1,58.9,55C61.54,56.8,59,61.11,56.39,59.3Zm3.26-11.73a50.1,50.1,0,0,0-41.71-4.45c-3.66,1.21-5.21-4.56-1.58-5.76a56,56,0,0,1,46.3,5C66,44.38,63,49.54,59.65,47.57Zm5-12.47c-14.55-8.21-32.22-9.21-48.11-4.7-4.33,1.22-6.16-5.5-1.86-6.72,17.68-5,37.34-3.7,53.49,5.4C72.07,31.28,68.55,37.3,64.64,35.1Z"/></g></g></svg>