<svg width="112" height="24" viewBox="0 0 112 24" fill="none" xmlns="http://www.w3.org/2000/svg">
<mask id="mask0_30_1074" style="mask-type:luminance" maskUnits="userSpaceOnUse" x="0" y="0" width="13" height="23">
<path d="M0.832674 0.66333C0.594401 0.724594 0.383321 0.862955 0.2326 1.05667C0.0818793 1.25039 6.04993e-05 1.48848 1.6271e-10 1.73354L1.6271e-10 21.5899C-2.54739e-06 21.7406 0.0299101 21.8898 0.0880176 22.0289C0.146125 22.168 0.231281 22.2943 0.338587 22.4006C0.445894 22.5068 0.573233 22.5909 0.713282 22.648C0.853332 22.705 1.00333 22.7339 1.15464 22.7331L12.0771 11.8983L0.832674 0.66333Z" fill="white"/>
</mask>
<g mask="url(#mask0_30_1074)">
<path d="M12.0771 0.66748H0V0.837741H12.0771V0.66748Z" fill="#308CAD"/>
<path d="M12.0771 0.835693H0V1.07671H12.0771V0.835693Z" fill="#308DAD"/>
<path d="M12.0771 1.0791H0V1.32012H12.0771V1.0791Z" fill="#318EAE"/>
<path d="M12.0771 1.32007H0V1.56109H12.0771V1.32007Z" fill="#318FAE"/>
<path d="M12.0771 1.56079H0V1.80181H12.0771V1.56079Z" fill="#3290AF"/>
<path d="M12.0771 1.802H0V2.04302H12.0771V1.802Z" fill="#3291AF"/>
<path d="M12.0771 2.04517H0V2.28618H12.0771V2.04517Z" fill="#3392B0"/>
<path d="M12.0771 2.28638H0V2.5274H12.0771V2.28638Z" fill="#3393B0"/>
<path d="M12.0771 2.5271H0V2.76812H12.0771V2.5271Z" fill="#3394B0"/>
<path d="M12.0771 2.76807H0V3.00908H12.0771V2.76807Z" fill="#3495B1"/>
<path d="M12.0771 3.00928H0V3.2503H12.0771V3.00928Z" fill="#3496B1"/>
<path d="M12.0771 3.2522H0V3.49322H12.0771V3.2522Z" fill="#3597B2"/>
<path d="M12.0771 3.49341H0V3.73443H12.0771V3.49341Z" fill="#3598B2"/>
<path d="M12.0771 3.73462H0V3.97564H12.0771V3.73462Z" fill="#3699B3"/>
<path d="M12.0771 3.97583H0V4.21685H12.0771V3.97583Z" fill="#369AB3"/>
<path d="M12.0771 4.21875H0V4.45977H12.0771V4.21875Z" fill="#369BB3"/>
<path d="M12.0771 4.45947H0V4.70049H12.0771V4.45947Z" fill="#379CB4"/>
<path d="M12.0771 4.70117H0V4.94219H12.0771V4.70117Z" fill="#379DB4"/>
<path d="M12.0771 4.94214H0V5.18316H12.0771V4.94214Z" fill="#389EB5"/>
<path d="M12.0771 5.18286H0V5.42388H12.0771V5.18286Z" fill="#389FB5"/>
<path d="M12.0771 5.42627H0V5.66729H12.0771V5.42627Z" fill="#39A0B6"/>
<path d="M12.0771 5.66699H0V5.90801H12.0771V5.66699Z" fill="#39A1B6"/>
<path d="M12.0771 5.9082H0V6.14922H12.0771V5.9082Z" fill="#39A2B6"/>
<path d="M12.0771 6.14917H0V6.39019H12.0771V6.14917Z" fill="#3AA3B7"/>
<path d="M12.0771 6.39233H0V6.63335H12.0771V6.39233Z" fill="#3AA4B7"/>
<path d="M12.0771 6.63354H0V6.87456H12.0771V6.63354Z" fill="#3BA5B8"/>
<path d="M12.0771 6.87427H0V7.11529H12.0771V6.87427Z" fill="#3BA6B8"/>
<path d="M12.0771 7.11548H0V7.3565H12.0771V7.11548Z" fill="#3CA7B9"/>
<path d="M12.0771 7.35645H0V7.59746H12.0771V7.35645Z" fill="#3CA8B9"/>
<path d="M12.0771 7.59961H0V7.84063H12.0771V7.59961Z" fill="#3CA9B9"/>
<path d="M12.0771 7.84082H0V8.08184H12.0771V7.84082Z" fill="#3DAABA"/>
<path d="M12.0771 8.08179H0V8.32281H12.0771V8.08179Z" fill="#3DABBA"/>
<path d="M12.0771 8.32275H0V8.56377H12.0771V8.32275Z" fill="#3EACBB"/>
<path d="M12.0771 8.56616H0V8.80718H12.0771V8.56616Z" fill="#3EADBB"/>
<path d="M12.0771 8.80664H0V9.04766H12.0771V8.80664Z" fill="#3FAEBC"/>
<path d="M12.0771 9.0481H0V9.28911H12.0771V9.0481Z" fill="#3FAFBC"/>
<path d="M12.0771 9.28906H0V9.53008H12.0771V9.28906Z" fill="#3FB0BC"/>
<path d="M12.0771 9.53003H0V9.77105H12.0771V9.53003Z" fill="#40B1BD"/>
<path d="M12.0771 9.77319H0V10.0142H12.0771V9.77319Z" fill="#40B2BD"/>
<path d="M12.0771 10.0139H0V10.2549H12.0771V10.0139Z" fill="#41B3BE"/>
<path d="M12.0771 10.2556H0V10.4966H12.0771V10.2556Z" fill="#41B4BE"/>
<path d="M12.0771 10.4963H0V10.7374H12.0771V10.4963Z" fill="#42B5BF"/>
<path d="M12.0771 10.7395H0V10.9805H12.0771V10.7395Z" fill="#42B6BF"/>
<path d="M12.0771 10.9805H0V11.2215H12.0771V10.9805Z" fill="#42B7BF"/>
<path d="M12.0771 11.2214H0V11.4625H12.0771V11.2214Z" fill="#43B8C0"/>
<path d="M12.0771 11.4631H0V11.7042H12.0771V11.4631Z" fill="#43B9C0"/>
<path d="M12.0771 11.7036H0V11.9446H12.0771V11.7036Z" fill="#44BBC1"/>
<path d="M12.0771 11.947H0V12.188H12.0771V11.947Z" fill="#44BCC1"/>
<path d="M12.0771 12.1882H0V12.4293H12.0771V12.1882Z" fill="#45BDC2"/>
<path d="M12.0771 12.429H0V12.67H12.0771V12.429Z" fill="#45BEC2"/>
<path d="M12.0771 12.6702H0V12.9112H12.0771V12.6702Z" fill="#45BFC2"/>
<path d="M12.0771 12.9131H0V13.1541H12.0771V12.9131Z" fill="#46C0C3"/>
<path d="M12.0771 13.1543H0V13.3953H12.0771V13.1543Z" fill="#46C1C3"/>
<path d="M12.0771 13.3955H0V13.6365H12.0771V13.3955Z" fill="#47C2C4"/>
<path d="M12.0771 13.636H0V13.877H12.0771V13.636Z" fill="#47C3C4"/>
<path d="M12.0771 13.8774H0V14.1185H12.0771V13.8774Z" fill="#48C4C5"/>
<path d="M12.0771 14.1206H0V14.3616H12.0771V14.1206Z" fill="#48C5C5"/>
<path d="M12.0771 14.3613H0V14.6023H12.0771V14.3613Z" fill="#48C6C5"/>
<path d="M12.0771 14.6025H0V14.8436H12.0771V14.6025Z" fill="#49C7C6"/>
<path d="M12.0771 14.8435H0V15.0845H12.0771V14.8435Z" fill="#49C8C6"/>
<path d="M12.0771 15.0869H0V15.3279H12.0771V15.0869Z" fill="#4AC9C7"/>
<path d="M12.0771 15.3279H0V15.5689H12.0771V15.3279Z" fill="#4ACAC7"/>
<path d="M12.0771 15.5688H0V15.8099H12.0771V15.5688Z" fill="#4BCBC8"/>
<path d="M12.0771 15.8098H0V16.0508H12.0771V15.8098Z" fill="#4BCCC8"/>
<path d="M12.0771 16.0508H0V16.2918H12.0771V16.0508Z" fill="#4BCDC8"/>
<path d="M12.0771 16.2942H0V16.5352H12.0771V16.2942Z" fill="#4CCEC9"/>
<path d="M12.0771 16.5354H0V16.7764H12.0771V16.5354Z" fill="#4CCFC9"/>
<path d="M12.0771 16.7759H0V17.0169H12.0771V16.7759Z" fill="#4DD0CA"/>
<path d="M12.0771 17.0173H0V17.2584H12.0771V17.0173Z" fill="#4DD1CA"/>
<path d="M12.0771 17.2605H0V17.5015H12.0771V17.2605Z" fill="#4ED2CB"/>
<path d="M12.0771 17.5015H0V17.7425H12.0771V17.5015Z" fill="#4ED3CB"/>
<path d="M12.0771 17.7424H0V17.9835H12.0771V17.7424Z" fill="#4ED4CB"/>
<path d="M12.0771 17.9829H0V18.2239H12.0771V17.9829Z" fill="#4FD5CC"/>
<path d="M12.0771 18.2244H0V18.4654H12.0771V18.2244Z" fill="#4FD6CC"/>
<path d="M12.0771 18.4678H0V18.7088H12.0771V18.4678Z" fill="#50D7CD"/>
<path d="M12.0771 18.7087H0V18.9498H12.0771V18.7087Z" fill="#50D8CD"/>
<path d="M12.0771 18.9495H0V19.1905H12.0771V18.9495Z" fill="#51D9CE"/>
<path d="M12.0771 19.1904H0V19.4314H12.0771V19.1904Z" fill="#51DACE"/>
<path d="M12.0771 19.4338H0V19.6749H12.0771V19.4338Z" fill="#51DBCE"/>
<path d="M12.0771 19.675H0V19.9161H12.0771V19.675Z" fill="#52DCCF"/>
<path d="M12.0771 19.916H0V20.157H12.0771V19.916Z" fill="#52DDCF"/>
<path d="M12.0771 20.1567H0V20.3978H12.0771V20.1567Z" fill="#53DED0"/>
<path d="M12.0771 20.3982H0V20.6392H12.0771V20.3982Z" fill="#53DFD0"/>
<path d="M12.0771 20.6416H0V20.8826H12.0771V20.6416Z" fill="#54E0D1"/>
<path d="M12.0771 20.8821H0V21.1231H12.0771V20.8821Z" fill="#54E1D1"/>
<path d="M12.0771 21.1235H0V21.3646H12.0771V21.1235Z" fill="#54E2D1"/>
<path d="M12.0771 21.3645H0V21.6055H12.0771V21.3645Z" fill="#55E3D2"/>
<path d="M12.0771 21.6074H0V21.8484H12.0771V21.6074Z" fill="#55E4D2"/>
<path d="M12.0771 21.8486H0V22.0897H12.0771V21.8486Z" fill="#56E5D3"/>
<path d="M12.0771 22.0896H0V22.3306H12.0771V22.0896Z" fill="#56E6D3"/>
<path d="M12.0771 22.3303H0V22.5713H12.0771V22.3303Z" fill="#57E7D4"/>
<path d="M12.0771 22.572H0V22.7356H12.0771V22.572Z" fill="#57E8D4"/>
</g>
<mask id="mask1_30_1074" style="mask-type:luminance" maskUnits="userSpaceOnUse" x="0" y="0" width="16" height="12">
<path d="M12.0767 11.8957L15.5651 8.43522L1.64274 0.769081C1.39679 0.629919 1.106 0.591839 0.832275 0.662945L12.0767 11.8957Z" fill="white"/>
</mask>
<g mask="url(#mask1_30_1074)">
<path d="M0.859007 0.598877L0.832275 0.636747V0.598877H0.859007Z" fill="#44AFB9"/>
<path d="M1.0595 0.598877L0.832275 0.915075V0.636467L0.859007 0.598877H1.0595Z" fill="#45AFB9"/>
<path d="M1.2586 0.598877L0.832275 1.19368V0.915075L1.05876 0.598877H1.2586Z" fill="#46B0B9"/>
<path d="M1.46067 0.598877L0.832275 1.47229V1.19368L1.2586 0.598877H1.46067Z" fill="#47B0B9"/>
<path d="M1.66273 0.598877L0.832275 1.7509V1.47229L1.46067 0.598877H1.66273Z" fill="#48B1B9"/>
<path d="M1.86257 0.598877L0.832275 2.02951V1.7509L1.66273 0.598877H1.86257Z" fill="#49B2B9"/>
<path d="M2.06241 0.598877L0.832275 2.30811V2.02951L1.86257 0.598877H2.06241Z" fill="#4AB2B8"/>
<path d="M2.26447 0.598877L0.832275 2.58672V2.30811L2.06241 0.598877H2.26447Z" fill="#4BB3B8"/>
<path d="M2.46654 0.598877L0.832275 2.86533V2.58672L2.26447 0.598877H2.46654Z" fill="#4CB3B8"/>
<path d="M2.66638 0.598877L0.832275 3.14394V2.86533L2.46654 0.598877H2.66638Z" fill="#4DB4B8"/>
<path d="M2.86622 0.598877L0.832275 3.42476V3.14394L2.66638 0.598877H2.86622Z" fill="#4EB5B8"/>
<path d="M3.06828 0.598877L0.832275 3.70337V3.42476L2.86622 0.598877H3.06828Z" fill="#4FB5B8"/>
<path d="M3.26812 0.598877L0.832275 3.98197V3.70337L3.06828 0.598877H3.26812Z" fill="#50B6B8"/>
<path d="M3.47019 0.598877L0.832275 4.26058V3.98197L3.26812 0.598877H3.47019Z" fill="#51B6B8"/>
<path d="M3.67003 0.598877L0.896669 4.45074L0.832275 4.40431V4.26058L3.47019 0.598877H3.67003Z" fill="#52B7B7"/>
<path d="M3.87239 0.598877L1.02798 4.54361L0.896973 4.45074L3.67033 0.598877H3.87239Z" fill="#53B8B7"/>
<path d="M4.07233 0.598877L1.1613 4.63869L1.02808 4.54361L3.87249 0.598877H4.07233Z" fill="#54B8B7"/>
<path d="M4.27447 0.598877L1.2946 4.73377L1.16138 4.63869L4.07241 0.598877H4.27447Z" fill="#55B9B7"/>
<path d="M4.47438 0.598877L1.42791 4.82885L1.29468 4.73377L4.27454 0.598877H4.47438Z" fill="#56B9B7"/>
<path d="M4.67627 0.598877L1.55874 4.92393L1.42773 4.82885L4.47421 0.598877H4.67627Z" fill="#57BAB7"/>
<path d="M4.87621 0.598877L1.69207 5.01902L1.55884 4.92393L4.67637 0.598877H4.87621Z" fill="#58BBB7"/>
<path d="M5.07859 0.598877L1.82561 5.1141L1.69238 5.01902L4.87653 0.598877H5.07859Z" fill="#59BBB7"/>
<path d="M5.27777 0.598877L1.95596 5.20697L1.82495 5.1141L5.07793 0.598877H5.27777Z" fill="#5ABCB6"/>
<path d="M5.36027 0.598877L5.44021 0.654156L2.08953 5.30204L1.9563 5.20696L5.27811 0.598877H5.36027Z" fill="#5BBCB6"/>
<path d="M5.43897 0.654397L2.08936 5.30151L2.22284 5.39693L5.57246 0.749811L5.43897 0.654397Z" fill="#5CBDB6"/>
<path d="M5.57146 0.748787L2.22266 5.39648L2.35616 5.49187L5.70496 0.844177L5.57146 0.748787Z" fill="#5DBEB6"/>
<path d="M5.70305 0.84449L2.35425 5.49219L2.48775 5.58758L5.83655 0.93988L5.70305 0.84449Z" fill="#5EBEB6"/>
<path d="M5.83936 0.941507L2.48975 5.58862L2.62323 5.68404L5.97285 1.03692L5.83936 0.941507Z" fill="#5FBFB6"/>
<path d="M5.9716 1.0337L2.6228 5.6814L2.75631 5.77679L6.10511 1.12909L5.9716 1.0337Z" fill="#60BFB6"/>
<path d="M6.10149 1.12769L2.75269 5.77539L2.88619 5.87078L6.23499 1.22308L6.10149 1.12769Z" fill="#61C0B6"/>
<path d="M6.23536 1.22495L2.88574 5.87207L3.01923 5.96748L6.36885 1.32037L6.23536 1.22495Z" fill="#62C1B5"/>
<path d="M6.3676 1.31739L3.0188 5.96509L3.1523 6.06048L6.5011 1.41278L6.3676 1.31739Z" fill="#63C1B5"/>
<path d="M6.50172 1.41441L3.1521 6.06152L3.28559 6.15694L6.6352 1.50982L6.50172 1.41441Z" fill="#64C2B5"/>
<path d="M6.63306 1.50987L3.28345 6.15698L3.41693 6.2524L6.76655 1.60528L6.63306 1.50987Z" fill="#65C2B5"/>
<path d="M6.76555 1.60181L3.41675 6.24951L3.55025 6.3449L6.89905 1.6972L6.76555 1.60181Z" fill="#66C3B5"/>
<path d="M6.89942 1.69908L3.5498 6.34619L3.68329 6.4416L7.03291 1.79449L6.89942 1.69908Z" fill="#67C4B5"/>
<path d="M7.02971 1.7898L3.68091 6.4375L3.81441 6.53289L7.16321 1.88519L7.02971 1.7898Z" fill="#68C4B5"/>
<path d="M7.1613 1.8877L3.8125 6.5354L3.946 6.63079L7.29481 1.98309L7.1613 1.8877Z" fill="#69C5B5"/>
<path d="M7.29542 1.98252L3.9458 6.62964L4.07929 6.72505L7.4289 2.07794L7.29542 1.98252Z" fill="#6AC5B4"/>
<path d="M7.42766 2.07496L4.07886 6.72266L4.21236 6.81805L7.56116 2.17035L7.42766 2.07496Z" fill="#6BC6B4"/>
<path d="M7.56169 2.17237L4.21289 6.82007L4.34639 6.91546L7.6952 2.26776L7.56169 2.17237Z" fill="#6CC7B4"/>
<path d="M7.69532 2.26768L4.3457 6.91479L4.47919 7.01021L7.82881 2.36309L7.69532 2.26768Z" fill="#6DC7B4"/>
<path d="M7.82756 2.36134L4.47876 7.00903L4.61226 7.10442L7.96106 2.45673L7.82756 2.36134Z" fill="#6EC8B4"/>
<path d="M7.95891 2.45386L4.61011 7.10156L4.74361 7.19695L8.09241 2.54926L7.95891 2.45386Z" fill="#6FC8B4"/>
<path d="M8.09132 2.55113L4.7417 7.19824L4.87519 7.29366L8.2248 2.64654L8.09132 2.55113Z" fill="#70C9B4"/>
<path d="M8.2238 2.64503L4.875 7.29272L5.0085 7.38811L8.35731 2.74042L8.2238 2.64503Z" fill="#71CAB4"/>
<path d="M8.35719 2.74033L5.00757 7.38745L5.14106 7.48286L8.49067 2.83575L8.35719 2.74033Z" fill="#72CAB3"/>
<path d="M8.49073 2.83579L5.14111 7.48291L5.2746 7.57832L8.62422 2.93121L8.49073 2.83579Z" fill="#73CBB3"/>
<path d="M8.62126 2.93018L5.27246 7.57788L5.40596 7.67327L8.75477 3.02557L8.62126 2.93018Z" fill="#74CBB3"/>
<path d="M8.75513 3.025L5.40552 7.67212L5.539 7.76753L8.88862 3.12042L8.75513 3.025Z" fill="#75CCB3"/>
<path d="M8.88843 3.12119L5.53882 7.76831L5.67231 7.86372L9.02192 3.21661L8.88843 3.12119Z" fill="#76CDB3"/>
<path d="M9.0175 3.21339L5.6687 7.86108L5.8022 7.95647L9.15101 3.30878L9.0175 3.21339Z" fill="#77CDB3"/>
<path d="M9.15406 3.31089L5.80444 7.95801L5.93793 8.05342L9.28755 3.40631L9.15406 3.31089Z" fill="#78CEB3"/>
<path d="M9.28557 3.4026L5.93677 8.05029L6.07027 8.14568L9.41907 3.49799L9.28557 3.4026Z" fill="#7ACFB2"/>
<path d="M9.41887 3.49635L6.07007 8.14404L6.20357 8.23943L9.55237 3.59174L9.41887 3.49635Z" fill="#7BCFB2"/>
<path d="M9.55152 3.5958L6.2019 8.24292L6.33539 8.33833L9.68501 3.69122L9.55152 3.5958Z" fill="#7CD0B2"/>
<path d="M9.68401 3.68751L6.33521 8.33521L6.46871 8.4306L9.81751 3.7829L9.68401 3.68751Z" fill="#7DD0B2"/>
<path d="M9.81658 3.78345L6.46777 8.43115L6.60128 8.52654L9.95008 3.87884L9.81658 3.78345Z" fill="#7ED1B2"/>
<path d="M9.94849 3.87754L6.59888 8.52466L6.73236 8.62007L10.082 3.97296L9.94849 3.87754Z" fill="#7FD2B2"/>
<path d="M10.0795 3.97071L6.73071 8.61841L6.86422 8.7138L10.213 4.0661L10.0795 3.97071Z" fill="#80D2B2"/>
<path d="M10.2139 4.0687L6.86426 8.71582L6.99774 8.81123L10.3474 4.16412L10.2139 4.0687Z" fill="#81D3B2"/>
<path d="M10.3467 4.16197L6.99707 8.80908L7.13056 8.9045L10.4802 4.25738L10.3467 4.16197Z" fill="#82D3B1"/>
<path d="M10.4772 4.25806L7.12842 8.90576L7.26192 9.00115L10.6107 4.35345L10.4772 4.25806Z" fill="#83D4B1"/>
<path d="M10.6116 4.35362L7.26196 9.00073L7.39545 9.09615L10.7451 4.44903L10.6116 4.35362Z" fill="#84D5B1"/>
<path d="M10.7446 4.44712L7.39502 9.09424L7.52851 9.18965L10.8781 4.54254L10.7446 4.44712Z" fill="#85D5B1"/>
<path d="M10.8771 4.53956L7.52832 9.18726L7.66182 9.28265L11.0106 4.63495L10.8771 4.53956Z" fill="#86D6B1"/>
<path d="M11.0095 4.63731L7.65991 9.28442L7.7934 9.37984L11.143 4.73272L11.0095 4.63731Z" fill="#87D6B1"/>
<path d="M11.1428 4.73277L7.79321 9.37988L7.9267 9.4753L11.2763 4.82818L11.1428 4.73277Z" fill="#88D7B1"/>
<path d="M11.2748 4.82423L7.92603 9.47192L8.05953 9.56731L11.4083 4.91962L11.2748 4.82423Z" fill="#89D8B1"/>
<path d="M11.4087 4.92027L8.05908 9.56738L8.19257 9.6628L11.5422 5.01568L11.4087 4.92027Z" fill="#8AD8B0"/>
<path d="M11.5408 5.01792L8.19116 9.66504L8.32465 9.76045L11.6743 5.11334L11.5408 5.01792Z" fill="#8BD9B0"/>
<path d="M11.6736 5.11143L8.32397 9.75854L8.45746 9.85396L11.8071 5.20684L11.6736 5.11143Z" fill="#8CD9B0"/>
<path d="M11.8058 5.2046L8.45703 9.85229L8.59053 9.94768L11.9393 5.29999L11.8058 5.2046Z" fill="#8DDAB0"/>
<path d="M11.9368 5.30137L8.58716 9.94849L8.72065 10.0439L12.0703 5.39678L11.9368 5.30137Z" fill="#8EDBB0"/>
<path d="M12.0698 5.39488L8.72021 10.042L8.8537 10.1374L12.2033 5.49029L12.0698 5.39488Z" fill="#8FDBB0"/>
<path d="M12.2026 5.49033L8.85303 10.1375L8.98651 10.2329L12.3361 5.58575L12.2026 5.49033Z" fill="#90DCB0"/>
<path d="M12.3346 5.58155L8.98584 10.2292L9.11934 10.3246L12.4681 5.67694L12.3346 5.58155Z" fill="#91DCB0"/>
<path d="M12.4697 5.68003L9.12012 10.3271L9.2536 10.4226L12.6032 5.77545L12.4697 5.68003Z" fill="#92DDAF"/>
<path d="M12.6028 5.775L9.25317 10.4221L9.38666 10.5175L12.7363 5.87042L12.6028 5.775Z" fill="#93DEAF"/>
<path d="M12.7348 5.86622L9.38599 10.5139L9.51949 10.6093L12.8683 5.96161L12.7348 5.86622Z" fill="#94DEAF"/>
<path d="M12.867 5.96348L9.51733 10.6106L9.65082 10.706L13.0004 6.05889L12.867 5.96348Z" fill="#95DFAF"/>
<path d="M12.9993 6.05869L9.64966 10.7058L9.78315 10.8012L13.1328 6.15411L12.9993 6.05869Z" fill="#96DFAF"/>
<path d="M13.1305 6.14991L9.78174 10.7976L9.91524 10.893L13.264 6.2453L13.1305 6.14991Z" fill="#97E0AF"/>
<path d="M13.2649 6.24839L9.91528 10.8955L10.0488 10.9909L13.3984 6.34381L13.2649 6.24839Z" fill="#98E1AF"/>
<path d="M13.3967 6.34336L10.0471 10.9905L10.1806 11.0859L13.5302 6.43878L13.3967 6.34336Z" fill="#99E1AF"/>
<path d="M13.5298 6.43931L10.1802 11.0864L10.3137 11.1818L13.6633 6.53472L13.5298 6.43931Z" fill="#9AE2AE"/>
<path d="M13.6615 6.53028L10.3127 11.178L10.4462 11.2734L13.795 6.62567L13.6615 6.53028Z" fill="#9BE2AE"/>
<path d="M13.7942 6.62559L10.4446 11.2727L10.5781 11.3681L13.9277 6.721L13.7942 6.62559Z" fill="#9CE3AE"/>
<path d="M13.9258 6.723L10.5762 11.3701L10.7097 11.4655L14.0593 6.81841L13.9258 6.723Z" fill="#9DE4AE"/>
<path d="M14.0575 6.81373L10.7087 11.4614L10.8422 11.5568L14.191 6.90912L14.0575 6.81373Z" fill="#9EE4AE"/>
<path d="M14.1943 6.91221L10.8447 11.5593L10.9782 11.6547L14.3278 7.00762L14.1943 6.91221Z" fill="#9FE5AE"/>
<path d="M14.3272 7.00645L10.9775 11.6536L11.111 11.749L14.4606 7.10186L14.3272 7.00645Z" fill="#A0E5AE"/>
<path d="M14.4582 7.09864L11.1094 11.7463L11.2429 11.8417L14.5917 7.19403L14.4582 7.09864Z" fill="#A1E6AE"/>
<path d="M14.5909 7.19482L14.7241 7.2899L11.4023 11.8958H11.3157L11.2402 11.8427L14.5909 7.19482Z" fill="#A2E7AD"/>
<path d="M14.7239 7.28979L14.8549 7.38488L11.6042 11.8957H11.4021L14.7239 7.28979Z" fill="#A3E7AD"/>
<path d="M14.8553 7.38501L14.9885 7.48009L11.8043 11.8958H11.6045L14.8553 7.38501Z" fill="#A4E8AD"/>
<path d="M14.9881 7.47998L15.1213 7.57506L12.006 11.8957H11.804L14.9881 7.47998Z" fill="#A5E8AD"/>
<path d="M15.1212 7.57495L15.2522 7.66782L12.2079 11.8956H12.0059L15.1212 7.57495Z" fill="#A6E9AD"/>
<path d="M15.2525 7.66797L15.3857 7.76305L12.4081 11.8957H12.2083L15.2525 7.66797Z" fill="#A7EAAD"/>
<path d="M15.3856 7.76318L15.5188 7.85826L12.6078 11.8959H12.408L15.3856 7.76318Z" fill="#A8EAAD"/>
<path d="M15.5187 7.8584L15.5653 7.89157V8.07288L12.8097 11.896H12.6077L15.5187 7.8584Z" fill="#A9EBAD"/>
<path d="M15.5657 8.35112L13.0099 11.8956H12.8101L15.5657 8.07251V8.35112Z" fill="#AAEBAC"/>
<path d="M15.5655 8.62993L13.2118 11.8958H13.0098L15.5655 8.35132V8.62993Z" fill="#ABECAC"/>
<path d="M15.5651 8.90849L13.4113 11.8958H13.2114L15.5651 8.62988V8.90849Z" fill="#ACEDAC"/>
<path d="M15.5655 9.18705L13.6137 11.8957H13.4116L15.5655 8.90845V9.18705Z" fill="#ADEDAC"/>
<path d="M15.5656 9.46586L13.8136 11.8959H13.6138L15.5656 9.18726V9.46586Z" fill="#AEEEAC"/>
<path d="M15.5657 9.74443L14.0158 11.8959H13.8137L15.5657 9.46582V9.74443Z" fill="#AFEEAC"/>
<path d="M15.5658 10.025L14.2157 11.8956H14.0159L15.5658 9.74414V10.025Z" fill="#B0EFAC"/>
<path d="M15.5656 10.3038L14.4176 11.8958H14.2156L15.5656 10.0251V10.3038Z" fill="#B1F0AC"/>
<path d="M15.5655 10.5821L14.6173 11.8955H14.4175L15.5655 10.3035V10.5821Z" fill="#B2F0AB"/>
<path d="M15.5658 10.8609L14.8197 11.8957H14.6177L15.5658 10.5823V10.8609Z" fill="#B3F1AB"/>
<path d="M15.5654 11.1394L15.0192 11.8957H14.8193L15.5654 10.8608V11.1394Z" fill="#B4F1AB"/>
<path d="M15.5658 11.418L15.2216 11.8956H15.0195L15.5658 11.1394V11.418Z" fill="#B5F2AB"/>
<path d="M15.2217 11.8956L15.5659 11.418V11.8956H15.2217Z" fill="#B5F2AB"/>
</g>
<mask id="mask2_30_1074" style="mask-type:luminance" maskUnits="userSpaceOnUse" x="1" y="11" width="15" height="12">
<path d="M15.2922 15.1071L12.077 11.8965L1.15454 22.7312C1.34677 22.7314 1.53576 22.6819 1.703 22.5875L15.2922 15.1071Z" fill="white"/>
</mask>
<g mask="url(#mask2_30_1074)">
<path d="M1.15454 22.7134L1.16817 22.7338H1.15454V22.7134Z" fill="#B2389E"/>
<path d="M1.15454 21.9768L1.72076 22.733H1.16786L1.15454 22.7131V21.9768Z" fill="#B2389D"/>
<path d="M1.15454 21.2407L2.27365 22.7333H1.72076L1.15454 21.977V21.2407Z" fill="#B3389C"/>
<path d="M1.15454 20.5044L2.82433 22.7333H2.27365L1.15454 21.2407V20.5044Z" fill="#B4399B"/>
<path d="M1.15454 19.7703L3.37723 22.7332H2.82433L1.15454 20.5044V19.7703Z" fill="#B4399A"/>
<path d="M1.15454 19.4673L1.36326 19.3125L3.9279 22.7332H3.37723L1.15454 19.7702V19.4673Z" fill="#B53999"/>
<path d="M1.36328 19.3127L1.71634 19.0496L4.48081 22.7334H3.92792L1.36328 19.3127Z" fill="#B63998"/>
<path d="M1.71631 19.0493L2.07158 18.7861L5.03146 22.7331H4.48079L1.71631 19.0493Z" fill="#B63997"/>
<path d="M2.07153 18.7863L2.42681 18.521L5.58431 22.7333H5.03141L2.07153 18.7863Z" fill="#B73996"/>
<path d="M2.42676 18.5212L2.77981 18.2581L6.00837 22.5632L5.77966 22.7335H5.58426L2.42676 18.5212Z" fill="#B83995"/>
<path d="M3.13384 17.994L2.77979 18.2573L6.00818 22.5626L6.36223 22.2993L3.13384 17.994Z" fill="#B83994"/>
<path d="M3.48906 17.7304L3.13501 17.9937L6.36341 22.2989L6.71746 22.0356L3.48906 17.7304Z" fill="#B93A93"/>
<path d="M3.84258 17.4689L3.48853 17.7322L6.71692 22.0374L7.07097 21.7742L3.84258 17.4689Z" fill="#BA3A92"/>
<path d="M4.19805 17.2052L3.84399 17.4685L7.07239 21.7738L7.42644 21.5105L4.19805 17.2052Z" fill="#BA3A91"/>
<path d="M4.55132 16.943L4.19727 17.2063L7.42566 21.5116L7.77971 21.2483L4.55132 16.943Z" fill="#BB3A90"/>
<path d="M4.90483 16.6759L4.55078 16.9392L7.77918 21.2445L8.13323 20.9812L4.90483 16.6759Z" fill="#BC3A8F"/>
<path d="M5.2603 16.4125L4.90625 16.6758L8.13465 20.981L8.4887 20.7178L5.2603 16.4125Z" fill="#BC3A8E"/>
<path d="M5.61406 16.1505L5.26001 16.4138L8.48841 20.7191L8.84246 20.4558L5.61406 16.1505Z" fill="#BD3A8D"/>
<path d="M5.96929 15.8874L5.61523 16.1506L8.84363 20.4559L9.19768 20.1926L5.96929 15.8874Z" fill="#BE3A8C"/>
<path d="M6.3228 15.6254L5.96875 15.8887L9.19715 20.1939L9.5512 19.9307L6.3228 15.6254Z" fill="#BE3B8A"/>
<path d="M6.67803 15.36L6.32397 15.6233L9.55237 19.9286L9.90642 19.6653L6.67803 15.36Z" fill="#BF3B89"/>
<path d="M7.03032 15.0963L6.67627 15.3596L9.90467 19.6649L10.2587 19.4016L7.03032 15.0963Z" fill="#C03B88"/>
<path d="M7.38579 14.8327L7.03174 15.0959L10.2601 19.4012L10.6142 19.1379L7.38579 14.8327Z" fill="#C03B87"/>
<path d="M7.74077 14.5697L7.38672 14.833L10.6151 19.1383L10.9692 18.875L7.74077 14.5697Z" fill="#C13B86"/>
<path d="M8.09404 14.3073L7.73999 14.5706L10.9684 18.8758L11.3224 18.6125L8.09404 14.3073Z" fill="#C23B85"/>
<path d="M8.44951 14.0421L8.09546 14.3054L11.3239 18.6107L11.6779 18.3474L8.44951 14.0421Z" fill="#C23B84"/>
<path d="M8.80327 13.7799L8.44922 14.0432L11.6776 18.3485L12.0317 18.0852L8.80327 13.7799Z" fill="#C33B83"/>
<path d="M9.15825 13.5168L8.8042 13.78L12.0326 18.0853L12.3866 17.822L9.15825 13.5168Z" fill="#C43C82"/>
<path d="M9.51055 13.2531L9.15649 13.5164L12.3849 17.8216L12.7389 17.5583L9.51055 13.2531Z" fill="#C43C81"/>
<path d="M9.86602 12.9897L9.51196 13.2529L12.7404 17.5582L13.0944 17.2949L9.86602 12.9897Z" fill="#C53C80"/>
<path d="M10.221 12.7243L9.86694 12.9875L13.0953 17.2928L13.4494 17.0295L10.221 12.7243Z" fill="#C63C7F"/>
<path d="M10.5745 12.4621L10.2205 12.7253L13.4489 17.0306L13.8029 16.7673L10.5745 12.4621Z" fill="#C63C7E"/>
<path d="M10.9297 12.1989L10.5757 12.4622L13.8041 16.7674L14.1581 16.5041L10.9297 12.1989Z" fill="#C73C7D"/>
<path d="M11.2833 11.9364L10.9292 12.1997L14.1576 16.505L14.5116 16.2417L11.2833 11.9364Z" fill="#C83C7C"/>
<path d="M11.2844 11.9363L11.3355 11.8965H11.8062L14.866 15.9761L14.513 16.2392L11.2844 11.9363Z" fill="#C83C7B"/>
<path d="M12.3588 11.8965L15.221 15.713L14.8657 15.9761L11.8059 11.8965H12.3588Z" fill="#C93D7A"/>
<path d="M12.912 11.8965L15.2924 15.0739V15.6599L15.2213 15.713L12.3591 11.8965H12.912Z" fill="#CA3D79"/>
<path d="M13.4623 11.8965L15.292 14.3376V15.0739L12.9116 11.8965H13.4623Z" fill="#CA3D78"/>
<path d="M14.0151 11.8965L15.2918 13.6013V14.3376L13.4622 11.8965H14.0151Z" fill="#CB3D77"/>
<path d="M15.2924 13.6013L14.0156 11.8965H15.2924V13.6013Z" fill="#CB3D77"/>
</g>
<mask id="mask3_30_1074" style="mask-type:luminance" maskUnits="userSpaceOnUse" x="12" y="8" width="9" height="8">
<path d="M15.2924 15.1067L20.1263 12.4533C20.2605 12.3789 20.3722 12.2702 20.45 12.1384C20.5278 12.0066 20.5688 11.8565 20.5688 11.7037C20.5688 11.5508 20.5278 11.4007 20.45 11.2689C20.3722 11.1371 20.2605 11.0284 20.1263 10.9541L15.5655 8.43555L12.0771 11.896L15.2924 15.1067Z" fill="white"/>
</mask>
<g mask="url(#mask3_30_1074)">
<path d="M13.2318 8.43555L12.0771 11.5909V8.43555H13.2318Z" fill="#FBAA74"/>
<path d="M13.5316 8.43555L12.0771 12.409V11.5909L13.2318 8.43555H13.5316Z" fill="#FBAA74"/>
<path d="M13.8313 8.43555L12.0771 13.225V12.409L13.5316 8.43555H13.8313Z" fill="#FBAB74"/>
<path d="M14.1289 8.43555L12.0771 14.0431V13.225L13.8313 8.43555H14.1289Z" fill="#FBAC74"/>
<path d="M14.4286 8.43555L12.2237 14.4632L12.0771 14.4101V14.0431L14.1289 8.43555H14.4286Z" fill="#FBAD74"/>
<path d="M14.7283 8.43555L12.4856 14.5583L12.2236 14.4632L14.4286 8.43555H14.7283Z" fill="#FBAE74"/>
<path d="M15.0258 8.43555L12.7498 14.6556L12.4856 14.5583L14.7283 8.43555H15.0258Z" fill="#FCAF74"/>
<path d="M15.3255 8.43555L13.014 14.7507L12.7498 14.6556L15.0257 8.43555H15.3255Z" fill="#FCB074"/>
<path d="M15.6257 8.43555L13.2786 14.8457L13.0144 14.7507L15.3259 8.43555H15.6257Z" fill="#FCB175"/>
<path d="M15.9229 8.43555L13.5426 14.943L13.2783 14.8457L15.6254 8.43555H15.9229Z" fill="#FCB275"/>
<path d="M16.2231 8.43555L13.8072 15.0381L13.543 14.943L15.9233 8.43555H16.2231Z" fill="#FCB375"/>
<path d="M16.5225 8.43555L14.08 15.1067H13.9956L13.8069 15.0381L16.2227 8.43555H16.5225Z" fill="#FCB475"/>
<path d="M16.8204 8.43555L14.3801 15.1067H14.0803L16.5228 8.43555H16.8204Z" fill="#FCB575"/>
<path d="M16.8626 8.43555L17.0891 8.51957L14.6777 15.1067H14.3801L16.8204 8.43555H16.8626Z" fill="#FCB675"/>
<path d="M17.0887 8.51978L17.3529 8.61486L14.977 15.1069H14.6772L17.0887 8.51978Z" fill="#FDB875"/>
<path d="M17.3527 8.61523L17.6169 8.71031L15.2766 15.1072H14.9768L17.3527 8.61523Z" fill="#FDB975"/>
<path d="M17.6172 8.70996L17.8815 8.80725L15.5744 15.1069H15.2769L17.6172 8.70996Z" fill="#FDBA75"/>
<path d="M17.8815 8.80688L18.1458 8.90196L15.8742 15.1065H15.5745L17.8815 8.80688Z" fill="#FDBB75"/>
<path d="M18.1456 8.90259L18.4098 8.99767L16.1716 15.1071H15.874L18.1456 8.90259Z" fill="#FDBC75"/>
<path d="M18.4099 8.99731L18.6719 9.09461L16.4714 15.1068H16.1716L18.4099 8.99731Z" fill="#FDBD75"/>
<path d="M18.6722 9.09473L18.9364 9.18981L16.7714 15.1069H16.4717L18.6722 9.09473Z" fill="#FDBE75"/>
<path d="M18.9359 9.18994L19.2002 9.28502L17.0708 15.107H16.771L18.9359 9.18994Z" fill="#FDBF76"/>
<path d="M19.2005 9.28491L19.4647 9.37999L17.3686 15.1069H17.071L19.2005 9.28491Z" fill="#FDC076"/>
<path d="M19.4648 9.37988L19.729 9.47718L17.6684 15.1068H17.3687L19.4648 9.37988Z" fill="#FEC176"/>
<path d="M19.7288 9.47729L19.993 9.57238L17.9658 15.1069H17.6682L19.7288 9.47729Z" fill="#FEC276"/>
<path d="M19.9929 9.57227L20.2549 9.66735L18.2653 15.1068H17.9656L19.9929 9.57227Z" fill="#FEC376"/>
<path d="M20.2552 9.66724L20.5194 9.76453L18.5654 15.1067H18.2656L20.2552 9.66724Z" fill="#FEC476"/>
<path d="M20.5192 9.76465L20.7168 9.83541V10.041L18.8627 15.1068H18.5652L20.5192 9.76465Z" fill="#FEC576"/>
<path d="M18.8628 15.1071L20.7169 10.0413V15.1071H18.8628Z" fill="#FEC576"/>
</g>
<path fill-rule="evenodd" clip-rule="evenodd" d="M28.1023 0.818135C27.1098 0.818135 26.3504 1.59205 26.3459 3.01383C26.3415 4.43562 27.1031 5.22501 28.1445 5.21174C29.0838 5.21174 29.6988 4.61914 29.7233 3.67939H28.2733V2.94086H30.5937V3.60421C30.5937 5.09233 29.5678 6.03651 28.1356 6.03651C26.5413 6.03651 25.4578 4.88227 25.4578 3.02046C25.4578 1.15866 26.5724 0 28.0957 0C29.368 0 30.3539 0.789389 30.5537 1.93699H29.6322C29.5438 1.60457 29.3439 1.31229 29.0655 1.10874C28.7872 0.905191 28.4473 0.802639 28.1023 0.818135ZM31.7947 0.0817871H35.4896V0.851276H32.6896V2.62022H35.3053V3.38086H32.6896V5.17191H35.5273V5.94803H31.7947V0.0817871ZM41.0275 0.0817871H36.4622L36.4689 0.851276H38.3096V5.93698H39.1978V0.851276H41.0275V0.0817871ZM45.2045 5.94803H44.3164V0.0817871H45.2045V5.94803ZM50.8488 0.0817871H46.2746V0.851276H48.1309V5.93698H49.0191V0.851276H50.8488V0.0817871ZM56.5862 6.02987C55.0541 6.02987 53.9217 4.8867 53.9217 3.01383C53.9217 1.14097 55.0541 0 56.5862 0C58.1183 0 59.2508 1.13876 59.2508 3.01383C59.2508 4.88891 58.1095 6.02987 56.5862 6.02987ZM56.5862 5.21174C57.5965 5.21174 58.3493 4.44004 58.3626 3.01383C58.3759 1.58762 57.6054 0.802656 56.5862 0.818135C55.567 0.833613 54.8098 1.58762 54.8098 3.01383C54.8098 4.44004 55.5692 5.21616 56.5862 5.21174ZM64.3493 5.94803H65.1709L65.1864 0.0817871H64.2982V4.37589H64.2405L61.254 0.0817871H60.4235V5.94803H61.3117V1.66057H61.3605L64.3493 5.94803ZM30.7643 11.1378C28.9058 11.1378 27.4802 12.5861 27.4736 15.2483C27.4669 17.9106 28.8902 19.3656 30.8398 19.3589C32.5984 19.3589 33.7641 18.2533 33.7952 16.4844H31.0863V15.1113H35.4273V16.3628C35.4273 19.1466 33.5066 20.8979 30.8265 20.8979C27.84 20.8979 25.8149 18.7354 25.8149 15.255C25.8149 11.7746 27.9021 9.61206 30.751 9.61206C33.1335 9.61206 34.9699 11.0913 35.3518 13.2362H33.6287C33.2157 11.9404 32.2187 11.1289 30.7643 11.1378ZM41.0387 12.3958C38.6917 12.3958 37.1684 14.0961 37.1684 16.6589C37.1618 19.2062 38.7094 20.9066 41.0387 20.9066C43.368 20.9066 44.8912 19.2216 44.8912 16.6589C44.8912 14.0961 43.3857 12.3958 41.0387 12.3958ZM43.2592 16.6589C43.2592 18.2288 42.5309 19.5555 41.0387 19.5555C39.5244 19.5555 38.7983 18.2377 38.7983 16.6589C38.7983 15.0801 39.5355 13.7247 41.0387 13.7313C42.542 13.7379 43.2592 15.089 43.2592 16.6589ZM46.4389 16.6589C46.4389 14.0961 47.9621 12.3958 50.3069 12.3958C52.6518 12.3958 54.1617 14.0961 54.1617 16.6589C54.1617 19.2216 52.6384 20.9066 50.3069 20.9066C47.9755 20.9066 46.43 19.2062 46.4389 16.6589ZM50.3069 19.5555C51.7991 19.5555 52.5163 18.2288 52.5163 16.6589C52.5163 15.089 51.7991 13.7379 50.3069 13.7313C48.8148 13.7247 48.0687 15.0801 48.0687 16.6589C48.0687 18.2377 48.7926 19.5555 50.3069 19.5555ZM57.5967 21.5434H55.9358C56.0802 23.0824 57.4591 24 59.5507 24C61.6824 24 63.2833 23.0381 63.2833 20.922V12.5107H61.6935V13.8374H61.5869C61.2827 13.3222 60.7187 12.3958 59.1799 12.3958C57.1926 12.3958 55.7071 13.906 55.7071 16.5373C55.7071 19.1686 57.2148 20.6169 59.1644 20.6169C60.6832 20.6169 61.2827 19.7678 61.5714 19.2371H61.6779V20.8601C61.6713 22.1426 60.8564 22.6954 59.5618 22.6954C58.4849 22.7042 57.7566 22.3239 57.5967 21.5434ZM61.6935 16.5682C61.6935 18.2664 60.9163 19.2836 59.5308 19.2836C58.1074 19.2747 57.3591 18.1824 57.368 16.5682C57.3591 14.9895 58.0919 13.7755 59.5308 13.7755C60.9319 13.7689 61.6935 14.8701 61.6935 16.5682ZM67.2 20.7388H65.5701V9.75586H67.2V20.7388ZM72.9511 12.3958C70.6418 12.3958 69.1275 14.1404 69.1275 16.6744C69.1186 19.2371 70.6107 20.9066 73.0577 20.9066C74.8785 20.9066 76.1486 20.0022 76.5149 18.6755H74.8696C74.5965 19.1774 73.9947 19.571 73.0732 19.571C71.7165 19.571 70.7884 18.6843 70.7417 17.1144H76.6215V16.5373C76.6215 13.5566 74.8318 12.3958 72.9511 12.3958ZM72.9666 13.7313C74.2079 13.7225 75.0228 14.6489 75.0228 15.9005H70.7462C70.8172 14.7396 71.6632 13.7313 72.9666 13.7313ZM82.8054 9.75586H86.7357C89.3025 9.75586 90.5593 11.2882 90.5593 13.3225C90.5593 15.3568 89.2958 16.8869 86.7357 16.8869H84.4819V20.7388H82.8054V9.75586ZM86.5691 15.4607C88.1901 15.4607 88.8695 14.5585 88.8695 13.3225C88.8695 12.0864 88.1901 11.1909 86.5691 11.1821H84.4819V15.4607H86.5691ZM92.5025 20.7388H94.1323V9.75586H92.5025V20.7388ZM99.1349 15.945C99.2845 15.9371 99.4857 15.9263 99.7069 15.9144L99.7074 15.9144C100.297 15.8827 101.029 15.8434 101.306 15.8322V15.1688C101.306 14.2357 100.736 13.6962 99.6323 13.6962C98.6708 13.6962 98.0935 14.1384 97.9247 14.7421H96.3016C96.4459 13.3778 97.7271 12.3916 99.6833 12.3916C101.002 12.3916 102.921 12.8692 102.927 15.2661V20.7388H101.344V19.6177H101.282C100.962 20.2324 100.201 20.9223 98.8396 20.9223C97.2697 20.9223 96.044 20.0268 96.0507 18.4193C96.0351 16.5376 97.6427 16.0533 99.1349 15.945ZM99.197 19.6332C100.529 19.6332 101.313 18.7487 101.313 17.767V17.0152C101.14 17.0254 100.792 17.0491 100.431 17.0736L100.43 17.0737L100.429 17.0737C100.013 17.1021 99.5781 17.1316 99.3702 17.1434C98.3044 17.2208 97.6338 17.6232 97.6338 18.4347C97.6338 19.2462 98.2822 19.6244 99.197 19.6332ZM105.028 22.4387V23.7875C105.317 23.8177 105.607 23.8332 105.898 23.834C107.261 23.8207 108.101 23.1352 108.58 21.8307L112 12.5017H110.248L108.161 18.8876H108.07L105.982 12.5017H104.246L107.268 20.8445L107.071 21.3906C106.682 22.4299 106.262 22.4675 105.76 22.4675C105.723 22.4664 105.682 22.4653 105.641 22.4641C105.43 22.4584 105.182 22.4517 105.028 22.4387Z" fill="white"/>
</svg>
