<svg width="101" height="26" viewBox="0 0 101 26" fill="none" xmlns="http://www.w3.org/2000/svg">
<path fill-rule="evenodd" clip-rule="evenodd" d="M28.0396 0V6.27341H30.1015C32.0167 6.27341 33.135 5.08255 33.1304 3.12861C33.1257 1.17467 32.0167 0 30.1528 0H28.0396ZM32.1774 3.12861C32.1774 4.61083 31.4715 5.44096 30.0386 5.44096H28.9902V0.832446H30.0805C31.4785 0.832446 32.1774 1.64639 32.1774 3.12861ZM13.676 0.173489C13.7568 2.2731 12.8823 3.84858 11.0526 4.89993C10.5397 5.18936 9.96039 5.34304 9.37039 5.34622C9.19332 5.34622 9.11643 5.28841 9.1374 5.11498C9.14826 4.68872 9.19974 4.26444 9.29117 3.84781C9.88995 1.88 11.225 0.66602 13.2613 0.217424C13.2901 0.217424 13.3188 0.204723 13.3476 0.192023C13.3631 0.185184 13.3786 0.178345 13.3941 0.173489H13.676ZM18.3731 16.591V16.6488C18.3608 16.6786 18.3478 16.708 18.3349 16.7372L18.3349 16.7372L18.3348 16.7373C18.3136 16.7853 18.2927 16.8327 18.2753 16.8801C17.6542 18.6345 16.6665 20.2389 15.3769 21.588C14.629 22.3673 13.7041 22.7095 12.6253 22.4551C12.1879 22.3352 11.761 22.1806 11.3486 21.9927C10.8075 21.7603 10.2245 21.6395 9.63496 21.6375C9.04542 21.6355 8.46161 21.7524 7.91897 21.9811C7.82076 22.0201 7.72276 22.0599 7.62472 22.0998L7.62457 22.0998C7.39704 22.1923 7.16927 22.2849 6.93809 22.3673C6.47827 22.5559 5.97324 22.6082 5.48408 22.5179C4.99493 22.4276 4.54261 22.1986 4.18184 21.8586C4.00936 21.7145 3.84595 21.5601 3.69257 21.3961C2.28181 19.8603 1.23078 18.0339 0.614799 16.0476C0.0765966 14.2949 -0.18435 12.5144 0.146493 10.6876C0.428408 9.11752 1.11805 7.76941 2.40881 6.77973C3.51783 5.92878 4.78062 5.4825 6.18321 5.69755C6.88223 5.83062 7.56326 6.04402 8.21254 6.33345C8.55698 6.49108 8.93177 6.57271 9.31107 6.57271C9.69038 6.57271 10.0652 6.49108 10.4096 6.33345C10.9325 6.10432 11.4714 5.91267 12.0219 5.75998C13.0324 5.4882 14.1012 5.51711 15.0953 5.84311C16.0894 6.16912 16.9651 6.77785 17.6136 7.59368C17.6429 7.63248 17.6714 7.67295 17.7011 7.71508C17.7209 7.74324 17.7412 7.77214 17.7627 7.80179L17.7168 7.83346L17.7168 7.83347L17.7166 7.83358C17.6615 7.87157 17.6158 7.90302 17.5717 7.9359C15.9827 9.09208 15.1579 10.6113 15.3699 12.5884C15.5773 14.4914 16.6374 15.8002 18.3731 16.591ZM34.1045 3.94252C34.1045 2.4788 34.9782 1.50761 36.3226 1.50761C37.6669 1.50761 38.5313 2.4788 38.5313 3.94252C38.5313 5.40624 37.6576 6.36817 36.3226 6.36817C34.9875 6.36817 34.0998 5.3993 34.1045 3.94252ZM36.3226 5.59816C37.1776 5.59816 37.5877 4.83971 37.5877 3.94252C37.5877 3.04533 37.1776 2.27531 36.3226 2.27069C35.4675 2.26606 35.0388 3.0407 35.0388 3.94252C35.0388 4.84433 35.4535 5.59816 36.3226 5.59816ZM40.0739 1.56795H39.1187L40.5096 6.27358H41.4718L42.4178 2.88599H42.4877L43.4476 6.27358H44.4005L45.7984 1.56795H44.8385L43.9205 4.99948H43.8693L42.9513 1.56795H41.9914L41.0594 5.01797H41.0059L40.0739 1.56795ZM47.6715 6.27337H46.7395V1.56774H47.6388V2.34006H47.6924C47.9138 1.83366 48.3914 1.50761 49.0904 1.50761C50.0642 1.50761 50.7096 2.11807 50.705 3.2835V6.27337H49.773V3.3968C49.773 2.7031 49.3979 2.30537 48.7688 2.30537C48.1398 2.30537 47.6691 2.73316 47.6691 3.48467L47.6715 6.27337ZM52.019 6.27341H52.951V0H52.019V6.27341ZM54.0527 3.94252C54.0527 2.4788 54.9264 1.50761 56.2708 1.50761C57.6151 1.50761 58.4795 2.4788 58.4795 3.94252C58.4795 5.40624 57.6058 6.36817 56.2708 6.36817C54.9358 6.36817 54.0527 5.3993 54.0527 3.94252ZM56.2719 5.59816C57.1262 5.59748 57.5359 4.83931 57.5359 3.94252C57.5359 3.04533 57.1258 2.27531 56.2708 2.27069C55.4157 2.26606 54.9847 3.0407 54.9847 3.94252C54.9847 4.84393 55.4037 5.59748 56.2719 5.59816ZM62.3776 3.4708L61.1334 3.53554C60.2784 3.59567 59.3557 3.87315 59.372 4.94839C59.3674 5.86639 60.071 6.37742 60.9703 6.37742C61.7462 6.37742 62.1842 5.98432 62.3683 5.63285H62.4032V6.27337H63.3095V3.14476C63.3095 1.78047 62.2005 1.50761 61.4456 1.50761C60.3226 1.50761 59.591 2.07183 59.5072 2.85109H60.4391C60.537 2.50424 60.8678 2.25219 61.4177 2.25219C62.0514 2.25219 62.3776 2.55973 62.3776 3.09389V3.4708ZM62.3822 4.5761C62.3822 5.13338 61.9279 5.6421 61.1684 5.6421C60.6442 5.63747 60.2737 5.42242 60.2737 4.95764C60.2737 4.49286 60.6581 4.26393 61.2686 4.22L62.3822 4.14601V4.5761ZM64.4046 3.93099C64.4046 2.39791 65.255 1.50534 66.3943 1.50534C66.6795 1.49237 66.9621 1.56367 67.2064 1.71021C67.4507 1.85675 67.6456 2.07194 67.7666 2.32854H67.8109V0H68.7428V6.27341H67.8342V5.54964H67.7643C67.6412 5.80656 67.445 6.02209 67.1999 6.16961C66.9547 6.31713 66.6715 6.39019 66.385 6.37977C65.2364 6.3659 64.4046 5.45021 64.4046 3.93099ZM66.597 5.57739C67.3915 5.57739 67.8365 4.90218 67.8365 3.91481C67.8365 2.92744 67.3985 2.29616 66.597 2.29616C65.7955 2.29616 65.3529 2.98987 65.3575 3.91481C65.3622 4.83975 65.7792 5.57739 66.597 5.5797V5.57739ZM74.5093 1.50761C73.165 1.50761 72.2913 2.4788 72.2913 3.94252C72.2866 5.3993 73.1743 6.36817 74.5093 6.36817C75.8443 6.36817 76.718 5.40624 76.718 3.94252C76.718 2.4788 75.8537 1.50761 74.5093 1.50761ZM75.7745 3.94252C75.7745 4.83971 75.3644 5.59816 74.5093 5.59816C73.6403 5.59816 73.2256 4.84433 73.2256 3.94252C73.2256 3.0407 73.6543 2.26606 74.5093 2.27069C75.3644 2.27531 75.7745 3.04533 75.7745 3.94252ZM78.7496 6.27356H77.8176V1.56793H78.717V2.34025H78.7682C78.8862 2.07529 79.0839 1.85304 79.3342 1.704C79.5844 1.55496 79.8751 1.48643 80.1661 1.50781C81.14 1.50781 81.7854 2.11827 81.7808 3.28369V6.27356H80.8488V3.397C80.8488 2.70329 80.4737 2.30557 79.8446 2.30557C79.2156 2.30557 78.7496 2.73335 78.7496 3.48487V6.27356ZM86.704 2.31217H87.6733L87.6756 1.56759H86.7064V0.441477H85.7744V1.56759H85.0754V2.31217H85.7744V5.07774C85.7558 5.93562 86.4244 6.33335 87.1537 6.33335C87.3492 6.33533 87.5446 6.32374 87.7385 6.29866V5.49396C87.6127 5.50784 87.4076 5.5194 87.2725 5.5194C86.972 5.51477 86.704 5.41997 86.704 4.88813V2.31217ZM89.7957 6.27341H88.8637V0H89.7817V2.3401H89.8422C90.0752 1.82907 90.5109 1.50765 91.2402 1.50765C92.2141 1.50765 92.8711 2.10655 92.8711 3.28354V6.27341H91.9391V3.39684C91.9391 2.70314 91.564 2.30541 90.935 2.30541C90.3059 2.30541 89.8003 2.7332 89.8003 3.48471L89.7957 6.27341ZM96.1587 1.50761C94.8354 1.50761 93.9663 2.50424 93.9663 3.95177C93.9617 5.41086 94.8261 6.36817 96.2193 6.35892C97.2701 6.35892 97.9924 5.8479 98.202 5.08713H97.2584C97.1516 5.25941 96.9989 5.39912 96.8172 5.49091C96.6355 5.58269 96.4319 5.623 96.2286 5.60741C95.4505 5.60741 94.9193 5.09869 94.8913 4.20381H98.2556V3.87315C98.2556 2.17126 97.2375 1.50761 96.1587 1.50761ZM96.1681 2.27069C96.881 2.26606 97.347 2.79559 97.347 3.51011H94.896C94.9009 3.1789 95.0372 2.86298 95.2754 2.63093C95.5135 2.39888 95.8343 2.26944 96.1681 2.27069ZM27.6855 22.8714L31.7046 11.7721H33.6687L37.704 22.8714H35.8937L34.8756 19.9393H30.521L29.4959 22.8714H27.6855ZM34.3793 18.5288L32.7251 13.7885H32.6482L31.0033 18.5288H34.3793ZM40.9101 14.5399H39.3025V25.9999H40.9567V21.5672H41.0499C41.2645 22.0214 41.6087 22.4031 42.0398 22.6649C42.471 22.9268 42.9701 23.0572 43.4753 23.0401C45.5093 23.0309 46.9841 21.4423 46.9841 18.7276C46.9841 16.0129 45.493 14.4335 43.4613 14.4335C41.9073 14.4335 41.3435 15.3677 41.0499 15.8903H40.9101V14.5399ZM45.3136 18.6975C45.3136 20.3694 44.5564 21.6435 43.1025 21.6435C41.7046 21.6365 40.9241 20.4318 40.9241 18.6975C40.9241 16.9633 41.6813 15.8279 43.1025 15.8279C44.582 15.821 45.3136 17.0257 45.3136 18.6975ZM48.939 14.5399H50.5582V15.8903H50.698C50.9916 15.3677 51.5554 14.4335 53.1094 14.4335C55.1295 14.4335 56.6159 16.0129 56.6159 18.7299C56.6159 21.4469 55.1458 23.0309 53.1211 23.0401C52.6155 23.0577 52.1159 22.9274 51.6843 22.6656C51.2527 22.4037 50.9081 22.0217 50.6934 21.5672H50.6002V25.9999H48.946L48.939 14.5399ZM52.7413 21.6435C54.1952 21.6435 54.9524 20.3694 54.9524 18.6975C54.9524 17.0257 54.2185 15.821 52.7413 15.8279C51.3201 15.8279 50.5629 16.9633 50.5629 18.6975C50.5629 20.4318 51.3364 21.6365 52.7413 21.6435ZM64.442 14.7088C64.449 13.7607 65.3157 13.067 66.6834 13.067C67.9671 13.067 68.8781 13.659 68.9876 14.6926H70.6395C70.5952 12.8982 68.9923 11.6102 66.7276 11.6102C64.463 11.6102 62.7389 12.882 62.7389 14.8013C62.7482 16.3598 63.8596 17.2547 65.6606 17.7472L66.9909 18.0987C68.1768 18.4132 69.1088 18.8039 69.1088 19.7705C69.0994 20.8596 68.065 21.5811 66.6344 21.5811C65.3297 21.5741 64.2463 20.9984 64.1461 19.7867H62.4453C62.5595 21.8123 64.1345 23.054 66.6391 23.054C69.2835 23.054 70.7979 21.6805 70.7979 19.8029C70.7909 17.7935 68.9969 17.0188 67.5664 16.672L66.483 16.3806C65.593 16.1748 64.442 15.7609 64.442 14.7088ZM76.7226 15.8444H75.0054V20.4159C75.0054 21.3593 75.4714 21.5281 76.012 21.5351C76.2449 21.5351 76.6131 21.512 76.846 21.4888V22.9179C76.5021 22.9602 76.1558 22.9803 75.8092 22.978C74.5185 22.978 73.3536 22.2727 73.3675 20.7535V15.8444H72.1304V14.5402H73.3675V12.547H74.9985V14.5402H76.7156L76.7226 15.8444ZM82.1163 14.4335C79.7352 14.4335 78.1905 16.1516 78.1905 18.7438C78.1835 21.322 79.7515 23.0401 82.1163 23.0401C84.4811 23.0401 86.0282 21.3359 86.0282 18.7438C86.0282 16.1516 84.4974 14.4335 82.1163 14.4335ZM84.3576 18.7438C84.3576 20.3324 83.6307 21.6735 82.1163 21.6735C80.5786 21.6735 79.8447 20.3393 79.8447 18.7438C79.8447 17.1482 80.5902 15.7724 82.1163 15.7816C83.6424 15.7909 84.3576 17.1552 84.3576 18.7438ZM87.9668 14.5403H89.5581V15.8607H89.6513C89.8071 15.4244 90.0993 15.049 90.4854 14.7894C90.8715 14.5298 91.3311 14.3996 91.7971 14.4178C91.9975 14.4178 92.3213 14.434 92.4961 14.4478V16.0133C92.212 15.9528 91.9223 15.9218 91.6317 15.9208C90.4877 15.9208 89.6373 16.7047 89.6373 17.7938V22.881H87.9831L87.9668 14.5403ZM97.272 14.4335C94.9281 14.4335 93.3904 16.1979 93.3904 18.76C93.3834 21.3429 94.9048 23.0401 97.3745 23.0401C99.2221 23.0401 100.513 22.1337 100.883 20.7833H99.2244C98.9448 21.2897 98.3321 21.6897 97.4001 21.6897C96.0232 21.6897 95.0796 20.7925 95.0353 19.2039H101V18.6212C101 15.6059 99.1802 14.4335 97.272 14.4335ZM97.2766 15.7816C98.5464 15.7747 99.3735 16.7112 99.3735 17.9761H95.0283C95.0982 16.8037 95.9556 15.7816 97.2766 15.7816Z" fill="white"/>
</svg>
