<svg width="18" height="18" viewBox="0 0 18 18" fill="none" xmlns="http://www.w3.org/2000/svg">
<path d="M9 0C7.21997 0 5.47991 0.527841 3.99987 1.51677C2.51983 2.50571 1.36628 3.91131 0.685088 5.55585C0.00389951 7.20038 -0.17433 9.00998 0.172936 10.7558C0.520203 12.5016 1.37737 14.1053 2.63604 15.364C3.89471 16.6226 5.49836 17.4798 7.24419 17.8271C8.99002 18.1743 10.7996 17.9961 12.4442 17.3149C14.0887 16.6337 15.4943 15.4802 16.4832 14.0001C17.4722 12.5201 18 10.78 18 9C18 6.61305 17.0518 4.32387 15.364 2.63604C13.6761 0.948211 11.3869 0 9 0ZM15.3654 12.5445C14.5361 13.9655 13.1792 15.0322 11.747 15.8003C11.1846 16.1018 9.95058 16.876 9.41989 16.1524C8.9902 15.5674 8.30572 14.7487 7.54209 14.6236C6.85761 14.512 6.30731 14.8429 5.64319 14.4434C5.04012 14.0823 4.97529 13.517 4.65039 12.9652C4.31418 12.3945 3.79479 11.9626 3.24977 11.6C2.74998 11.2675 2.15898 10.8785 1.91398 10.3026C1.66899 9.72669 1.73382 8.9804 1.81523 8.36753C2.00444 6.9933 2.55172 4.23804 4.20111 3.86263C4.06617 3.89354 4.58405 4.74763 4.72879 4.82C5.00243 4.95494 5.29944 4.85091 5.55273 4.71974C6.45733 4.25086 7.1501 3.35304 7.67703 2.50348C7.77039 2.33406 7.88433 2.17683 8.01625 2.03535C8.35548 1.70894 8.98493 1.70592 9.41009 1.82352C9.43974 1.82796 9.46782 1.83973 9.49178 1.85776C9.51574 1.87579 9.53482 1.89952 9.54728 1.92679C9.59251 2.05721 9.41536 2.25697 9.34903 2.37532C9.12552 2.76765 8.96525 3.19275 8.87411 3.63498C8.6947 4.53958 9.22766 4.84111 9.73725 5.46C10.0605 5.85099 10.3448 6.27263 10.5861 6.7189C10.6268 6.79429 10.6614 6.89831 10.5959 6.95334C10.5672 6.97307 10.5334 6.98407 10.4986 6.98501C9.96265 7.04531 9.42742 6.83424 8.98191 6.53271C8.5364 6.23117 8.16476 5.82712 7.76447 5.46528C7.68241 5.3827 7.58712 5.31442 7.48254 5.26325C6.91641 5.02127 6.08795 5.77209 5.6266 6.03442C5.05746 6.35857 4.13929 6.71287 3.74202 7.24055C3.26862 7.87 3.4616 9.0407 3.47894 9.77268C3.48798 10.1601 3.47894 10.626 3.82645 10.8876C3.94903 10.9704 4.08385 11.0335 4.22599 11.0745L5.63414 11.56C6.87118 11.9867 8.30572 11.269 9.11685 12.6908C9.45305 13.2803 9.6988 13.9225 10.0132 14.5241C10.7248 15.8863 11.7907 14.2746 12.2083 13.5509C12.5995 12.8724 13.1461 11.9882 12.9237 11.168C12.8996 11.0791 12.1367 9.82544 12.2633 9.81866C12.7842 9.79152 13.223 10.2272 13.762 10.0267C13.8236 10.0009 13.8806 9.96527 13.9308 9.92118C14.7336 9.26459 14.8535 8.1248 14.2723 7.28277C14.2535 7.26278 14.2392 7.23895 14.2305 7.21292C14.2218 7.1869 14.2188 7.15929 14.2218 7.132C14.2334 7.10239 14.2527 7.07638 14.2776 7.05662C14.411 6.93224 15.5591 5.87084 15.5455 5.86029C16.2835 6.72493 16.282 8.12178 16.2534 9.19223C16.221 10.3561 15.9549 11.5336 15.3654 12.5445Z" fill="#535353"/>
</svg>
