<svg xmlns="http://www.w3.org/2000/svg" viewBox="0 0 680 680"><defs><style>.cls-1{fill:#858585;}</style></defs><g id="레이어_2" data-name="레이어 2"><g id="레이어_1-2" data-name="레이어 1"><path class="cls-1" d="M660,0H20A20,20,0,0,0,0,20V660a20,20,0,0,0,20,20H363.52V416.06h-88V314.8h88V226.54c0-47.84,27.89-94.61,72.17-113.95,16.47-7.18,34.75-8.77,52.52-9.66,27.87-1.39,56.06.07,83.77,3.27.94.11,1.88.21,2.81.33v93H533.54s-71.26-14.25-63.76,54.76v60.5H571L559,416.06H469.23V680H660a20,20,0,0,0,20-20V20A20,20,0,0,0,660,0Z"/></g></g></svg>