<svg width="28" height="28" viewBox="0 0 28 28" fill="none" xmlns="http://www.w3.org/2000/svg">
<path d="M13.4121 7.56951L14.0271 8.44378L14.6399 7.56802C15.5942 6.20452 17.0003 5.2268 18.6062 4.80846C19.6339 4.66147 20.6825 4.79285 21.6431 5.1894C22.6154 5.59075 23.4614 6.24882 24.0911 7.094C24.7208 7.93919 25.1107 8.93987 25.219 9.98978C25.3261 11.0276 25.1542 12.075 24.7216 13.0232C22.1579 17.3485 18.4329 20.86 13.9758 23.1586C9.53659 20.8527 5.82922 17.342 3.27865 13.0237C2.84583 12.0754 2.67383 11.0278 2.78098 9.98978C2.88935 8.93987 3.27921 7.93919 3.90893 7.09399C4.53864 6.24882 5.38463 5.59075 6.35686 5.1894C7.31842 4.79245 8.36812 4.66121 9.39689 4.8089C11.0208 5.21691 12.4459 6.19607 13.4121 7.56951Z" stroke="white" stroke-width="1.5"/>
</svg>
