<svg width="28" height="28" viewBox="0 0 28 28" fill="none" xmlns="http://www.w3.org/2000/svg">
<path d="M18.4579 4.07217C16.6623 4.52949 15.0898 5.61723 14.0255 7.13799C12.9486 5.60718 11.3563 4.51835 9.54211 4.07217C8.36802 3.89648 7.16841 4.04299 6.07068 4.49614C4.97295 4.9493 4.01809 5.69219 3.30751 6.6459C2.59693 7.59961 2.15717 8.72854 2.03494 9.91278C1.9127 11.097 2.11256 12.2924 2.61327 13.3718C5.30133 17.9375 9.24632 21.628 13.9745 24C18.7215 21.636 22.685 17.9448 25.3867 13.3718C25.8874 12.2924 26.0873 11.097 25.9651 9.91278C25.8428 8.72854 25.4031 7.59961 24.6925 6.6459C23.9819 5.69219 23.0271 4.9493 21.9293 4.49614C20.8316 4.04299 19.632 3.89648 18.4579 4.07217Z" fill="#1CD75F"/>
</svg>
