<svg xmlns="http://www.w3.org/2000/svg" viewBox="0 0 333.38 75.28"><defs><style>.cls-1{fill:#fff;}</style></defs><g id="레이어_2" data-name="레이어 2"><g id="레이어_1-2" data-name="레이어 1"><circle class="cls-1" cx="257.44" cy="6.74" r="6.74"/><path class="cls-1" d="M113.12,31.94c-4.26-2.45-9.06-3.56-13.74-4.9-3.46-1-9.22-2.85-7.57-7.71.85-2.53,3.7-4.11,6.19-4.53,7.79-1.33,16.49,5.8,16.49,5.8l6.79-8.54s-7-7.62-21.33-7.62A22.87,22.87,0,0,0,88.46,7.21C81.15,11.48,77,22.89,82.63,30.15a20.12,20.12,0,0,0,6.59,5.08c4.79,2.53,10,3.06,15.09,4.57,3.79,1.12,7.89,3.56,6.62,8.14-1.11,4-6.18,4.8-9.7,4.8A22.61,22.61,0,0,1,85,45.37l-7.29,7.54c-.3.3,2.78,3.26,3.1,3.54a20.45,20.45,0,0,0,4,2.66A38.75,38.75,0,0,0,101,63.34c5.64.17,11.74-1.33,16.13-5.16,3.67-3.21,5.09-8,5.09-12.73a14,14,0,0,0-.17-2.24C121.2,38.13,117.41,34.42,113.12,31.94Z"/><path class="cls-1" d="M150.72,17.55a18.74,18.74,0,0,0-13.52,6V18.86H125.84V75.08H137.2V57.27a18.71,18.71,0,0,0,13.52,6c11.09,0,20.08-10.23,20.08-22.86S161.81,17.55,150.72,17.55Zm-2.4,36.32c-6.32,0-11.45-6-11.45-13.33S142,27.22,148.32,27.22s11.45,6,11.45,13.32S154.65,53.87,148.32,53.87Z"/><path class="cls-1" d="M196.39,17.74A22.81,22.81,0,1,0,219,40.54,22.7,22.7,0,0,0,196.39,17.74Zm0,35.55c-6.64,0-12-5.75-12-12.84s5.39-12.84,12-12.84,12,5.75,12,12.84S203,53.29,196.39,53.29Z"/><path class="cls-1" d="M236.36,9.23V7.75H225.49V19.4H220v9.22h5.48V48.78c0,2.85-.28,6,1.11,8.65,1.77,3.32,5.46,4.91,9.06,5.29,3.11.32,7.08.27,9.94-1.18.64-.32,1.72-1,1.72-1.84V51.58c0,.37-3.33.94-3.62,1a14.8,14.8,0,0,1-3.76.14A5.49,5.49,0,0,1,237.3,52a2.73,2.73,0,0,1-.93-2.16c-.11-2.3,0-4.63,0-6.94s0-4.84,0-7.25,0-4.66,0-7h10.94V19.4h-11Z"/><rect class="cls-1" x="252.15" y="19.5" width="11.6" height="42.33"/><path class="cls-1" d="M322.27,19.08,311.76,47.64,300.13,19.5H284c0-.2,0-1.32,0-1.49a12.78,12.78,0,0,1,.51-3.36c1.08-3.18,4.77-2.87,7.45-2.35a10.42,10.42,0,0,1,2.12.54V3.76c-3.26-1.59-11.28-2.65-16.66,1.51s-4.61,14.23-4.61,14.23h-5v9.24h4.69V61.83h11.36V22s0-1.27.05-2.92l-.05,9.28,9.1.21,13.47,33.86c-4.9,5.2-11,.45-11,.45l-4.18,8.63s3.87,3.77,12,3.77,12.45-9.18,12.45-9.18l17.64-47Z"/><path class="cls-1" d="M27.45,10A27.46,27.46,0,1,0,54.91,37.4,27.45,27.45,0,0,0,27.45,10ZM38.7,50.65A27,27,0,0,0,27,46.26c-4.16-.55-9-.54-12.94,1.13a1.74,1.74,0,0,1-2.33-.61,1.72,1.72,0,0,1,.61-2.34A28.69,28.69,0,0,1,27,42.85,30.39,30.39,0,0,1,40.43,47.7C42.23,48.93,40.52,51.89,38.7,50.65Zm2.24-8a34.35,34.35,0,0,0-28.62-3.05c-2.52.83-3.59-3.13-1.09-4A38.47,38.47,0,0,1,43,39.06C45.28,40.41,43.21,44,40.94,42.6ZM44.36,34c-10-5.63-22.11-6.32-33-3.23-3,.85-4.23-3.77-1.27-4.61,12.13-3.44,25.63-2.54,36.71,3.71C49.46,31.42,47.05,35.55,44.36,34Z"/></g></g></svg>