<svg width="24" height="24" viewBox="0 0 24 24" fill="none" xmlns="http://www.w3.org/2000/svg">
<path fill-rule="evenodd" clip-rule="evenodd" d="M15.2829 2.50147C15.7372 2.48219 16.1912 2.65426 16.546 2.99953L17.0145 3.50485C17.3403 3.89495 17.5194 4.41752 17.4996 4.96226C17.4796 5.51234 17.2591 6.02038 16.9024 6.37969L16.8868 6.39539L16.8722 6.41197C16.6729 6.63797 16.412 6.75908 16.1498 6.7702C15.8932 6.78109 15.6325 6.68686 15.4224 6.48959L13.9615 4.9139C13.7636 4.68008 13.6501 4.36177 13.6592 4.02495C13.6684 3.68391 13.8019 3.37148 14.0149 3.15203L14.0299 3.13651L14.0441 3.12016C14.3764 2.7356 14.8236 2.52097 15.2829 2.50147ZM17.6113 1.94328C16.9706 1.30999 16.1116 0.964945 15.2193 1.00282C14.3342 1.04039 13.5118 1.45043 12.923 2.12341C12.485 2.58237 12.2228 3.18489 12.169 3.81819C12.0093 3.91424 11.864 4.03505 11.7385 4.1766L11.7278 4.18871L11.7175 4.20127L5.52506 11.8219C5.22132 12.1239 5.04118 12.5275 5.00627 12.9498C4.96974 13.3917 5.09331 13.8385 5.3628 14.1958L5.38651 14.2273L5.41339 14.256L6.60751 15.535L6.633 15.5623L6.66107 15.587C7.00178 15.8859 7.4488 16.038 7.90678 15.994C8.34314 15.952 8.73542 15.7374 9.01413 15.4119L16.1116 8.74251L16.1296 8.72565L16.1464 8.70766C16.2758 8.569 16.3831 8.41279 16.4667 8.2449C17.0502 8.159 17.5836 7.86534 17.9822 7.42101C18.6065 6.78407 18.9657 5.91992 18.9986 5.01682C19.0317 4.1065 18.7314 3.20994 18.1486 2.5229L18.1379 2.51028L18.1267 2.49815L17.634 1.96674L17.6229 1.95476L17.6113 1.94328ZM14.8145 7.90306C14.6542 7.80482 14.5037 7.68822 14.366 7.55485L14.3515 7.54083L14.3378 7.52605L12.8514 5.92281L12.8424 5.9131L12.8338 5.90308C12.7341 5.78762 12.6449 5.66444 12.5665 5.5351L6.66056 12.8031L6.62721 12.8442L6.58842 12.8801C6.54565 12.9198 6.50829 12.9872 6.50117 13.0733C6.49496 13.1486 6.51359 13.2182 6.54547 13.2706L7.66908 14.474C7.70327 14.4976 7.73632 14.5034 7.76317 14.5009C7.79569 14.4977 7.84021 14.4799 7.88021 14.4297L7.91383 14.3875L7.95315 14.3505L14.8145 7.90306Z" fill="#1CD75F"/>
<circle cx="12" cy="20" r="2" fill="#1CD75F"/>
</svg>
