<svg width="28" height="28" viewBox="0 0 28 28" fill="none" xmlns="http://www.w3.org/2000/svg">
<path fill-rule="evenodd" clip-rule="evenodd" d="M7 14C7 15.1046 6.10457 16 5 16C3.89543 16 3 15.1046 3 14C3 12.8954 3.89543 12 5 12C6.10457 12 7 12.8954 7 14ZM16 14C16 15.1046 15.1046 16 14 16C12.8954 16 12 15.1046 12 14C12 12.8954 12.8954 12 14 12C15.1046 12 16 12.8954 16 14ZM23 16C24.1046 16 25 15.1046 25 14C25 12.8954 24.1046 12 23 12C21.8954 12 21 12.8954 21 14C21 15.1046 21.8954 16 23 16Z" fill="white"/>
</svg>
