<svg width="24" height="24" viewBox="0 0 24 24" fill="none" xmlns="http://www.w3.org/2000/svg">
<path fill-rule="evenodd" clip-rule="evenodd" d="M8.05714 2.5C7.31517 2.5 6.75 3.07942 6.75 3.75C6.75 4.42058 7.31517 5 8.05714 5H15.9429C16.6848 5 17.25 4.42058 17.25 3.75C17.25 3.07942 16.6848 2.5 15.9429 2.5H8.05714ZM5.25 3.75C5.25 2.21144 6.52686 1 8.05714 1H15.9429C17.4731 1 18.75 2.21144 18.75 3.75C18.75 5.28856 17.4731 6.5 15.9429 6.5H8.05714C6.52686 6.5 5.25 5.28856 5.25 3.75ZM19 10.75H5V9.25H19V10.75ZM5 15H19V13.5H5V15Z" fill="white"/>
</svg>
