<svg width="24" height="24" viewBox="0 0 24 24" fill="none" xmlns="http://www.w3.org/2000/svg">
<circle cx="12" cy="19" r="2" fill="#1CD75F"/>
<path fill-rule="evenodd" clip-rule="evenodd" d="M7.90314 1C7.89486 1 7.88658 1.00014 7.87831 1.00041C6.55972 1.04409 5.30454 1.57958 4.38827 2.50239C3.47315 3.42403 2.97027 4.6587 3.00136 5.94088V8.25323C2.97027 9.53541 3.47315 10.7701 4.38827 11.6917C5.30454 12.6145 6.55972 13.15 7.87831 13.1937C7.88658 13.194 7.89486 13.1941 7.90314 13.1941H9.02346C9.43767 13.1941 9.77346 12.8583 9.77346 12.4441C9.77346 12.0299 9.43767 11.6941 9.02346 11.6941H7.91612C6.97251 11.6599 6.08865 11.2753 5.45269 10.6348C4.81539 9.99299 4.4782 9.14705 4.5011 8.28258L4.50136 8.26272V5.93139L4.5011 5.91153C4.4782 5.04706 4.81539 4.20112 5.45269 3.55927C6.08865 2.91878 6.97251 2.53421 7.91612 2.5H16.0636C17.0108 2.52982 17.8995 2.91276 18.5393 3.55411C19.1802 4.19645 19.5195 5.04466 19.4967 5.91165L19.4964 5.93139V8.26272L19.4967 8.28258C19.5196 9.14705 19.1824 9.99299 18.5451 10.6348C17.9092 11.2753 17.0253 11.6599 16.0817 11.6941H13.3961L14.0727 11.011C14.3642 10.7167 14.3619 10.2419 14.0676 9.95037C13.7733 9.65889 13.2984 9.66117 13.007 9.95547L11.0755 11.9055C10.7858 12.1981 10.7861 12.6696 11.0762 12.9618L12.8824 14.7806C13.1743 15.0745 13.6491 15.0762 13.9431 14.7843C14.237 14.4924 14.2386 14.0176 13.9468 13.7236L13.4209 13.1941H16.0947C16.0991 13.1941 16.1036 13.1941 16.1081 13.194C16.1119 13.1939 16.1157 13.1938 16.1195 13.1937C17.4381 13.15 18.6933 12.6145 19.6095 11.6917C20.5247 10.7701 21.0275 9.53537 20.9964 8.25316V5.94084C21.0274 4.65486 20.5213 3.41694 19.6013 2.4947C18.6801 1.57133 17.4191 1.03836 16.0965 1.00031C16.0893 1.0001 16.0821 1 16.0749 1H7.90314Z" fill="#1CD75F"/>
</svg>
