<svg width="24" height="24" viewBox="0 0 24 24" fill="none" xmlns="http://www.w3.org/2000/svg">
<path fill-rule="evenodd" clip-rule="evenodd" d="M16.3877 1.16816C16.7091 0.90681 17.1815 0.955452 17.4428 1.27681L18.8358 2.98955C18.9559 3.13726 19.012 3.31989 19.003 3.50032C18.9955 3.67569 18.9278 3.83548 18.8201 3.95952L17.4679 5.82189C17.2245 6.15707 16.7555 6.23151 16.4203 5.98814C16.0851 5.74478 16.0107 5.27577 16.2541 4.94059L16.6182 4.43903C16.1743 4.57546 15.7438 4.78391 15.3168 5.08811C14.3676 5.7644 13.372 6.95934 12.3152 9.05674C11.1367 11.3957 9.50546 12.4813 8.13097 12.962C7.45268 13.1992 6.84928 13.2852 6.41079 13.3115C6.19115 13.3246 6.01143 13.323 5.88242 13.3175C5.81785 13.3147 5.7658 13.311 5.7276 13.3077C5.70849 13.306 5.69283 13.3045 5.68077 13.3032L5.66541 13.3014L5.65979 13.3008L5.6575 13.3005L5.65649 13.3004C5.65602 13.3003 5.65557 13.3002 5.75011 12.5562L5.65557 13.3002C5.24466 13.248 4.95388 12.8726 5.0061 12.4617C5.05814 12.0522 5.4312 11.762 5.84046 11.8117L5.84095 11.8117L5.85732 11.8133C5.87473 11.8148 5.9048 11.817 5.94629 11.8188C6.0294 11.8224 6.15755 11.824 6.32094 11.8142C6.6485 11.7945 7.11173 11.7294 7.63582 11.5461C8.66605 11.1858 9.98247 10.353 10.9756 8.3818C12.0905 6.16906 13.2227 4.73831 14.4465 3.86645C15.2177 3.31703 15.9998 3.0075 16.7901 2.85152L16.2791 2.22324C16.0177 1.90189 16.0664 1.42951 16.3877 1.16816ZM8.76886 4.79242C7.91009 4.28822 6.87713 4.09631 5.8702 4.25964C5.46133 4.32596 5.07611 4.04827 5.00979 3.6394C4.94347 3.23053 5.22116 2.84531 5.63003 2.77899C6.97592 2.56068 8.36319 2.81482 9.52831 3.49888C10.2889 3.94544 10.9223 4.55626 11.379 5.27799C11.6005 5.62801 11.4963 6.09131 11.1463 6.31281C10.7963 6.5343 10.333 6.43011 10.1115 6.0801C9.78544 5.5649 9.32809 5.12075 8.76886 4.79242ZM12.72 10.0754C13.0552 9.83201 13.5242 9.90634 13.7676 10.2415C14.0655 10.6515 14.4564 11.0049 14.9207 11.2731C15.4919 11.603 16.1447 11.7868 16.8127 11.8089L16.2535 11.0367C16.0106 10.7012 16.0856 10.2323 16.4211 9.98932C16.7566 9.74638 17.2255 9.82141 17.4684 10.1569L18.8614 12.0805C19.0596 12.3543 19.0502 12.7268 18.8385 12.9902L17.4456 14.7235C17.1861 15.0464 16.714 15.0978 16.3911 14.8383C16.0683 14.5789 16.0169 14.1068 16.2763 13.7839L16.6621 13.3038C15.7869 13.2591 14.9298 13.0106 14.1704 12.5719C13.5278 12.2007 12.9778 11.7064 12.554 11.123C12.3106 10.7879 12.3849 10.3189 12.72 10.0754Z" fill="white"/>
</svg>
