<svg width="24" height="24" viewBox="0 0 24 24" fill="none" xmlns="http://www.w3.org/2000/svg">
<path fill-rule="evenodd" clip-rule="evenodd" d="M6.49729 2.57466C6.4972 2.57465 6.49745 2.57394 6.49829 2.57257C6.49781 2.57399 6.49738 2.57467 6.49729 2.57466ZM6.51495 2.55475C6.50707 2.56155 6.50251 2.56672 6.5 2.57008V14.4313C6.50251 14.4346 6.50707 14.4398 6.51495 14.4466C6.54362 14.4714 6.6023 14.5014 6.68745 14.5014H17.3119C17.3971 14.5014 17.4557 14.4714 17.4844 14.4466C17.4923 14.4398 17.4969 14.4346 17.4994 14.4313V2.57008C17.4969 2.56672 17.4923 2.56155 17.4844 2.55475C17.4557 2.52997 17.3971 2.5 17.3119 2.5H6.68745C6.6023 2.5 6.54362 2.52997 6.51495 2.55475ZM6.49729 14.4267C6.49738 14.4267 6.49781 14.4274 6.49829 14.4288C6.49745 14.4274 6.4972 14.4267 6.49729 14.4267ZM17.5021 14.4267C17.5022 14.4267 17.5019 14.4274 17.5011 14.4288C17.5015 14.4274 17.502 14.4267 17.5021 14.4267ZM17.5021 2.57466C17.502 2.57468 17.5016 2.57399 17.5011 2.57257C17.5019 2.57394 17.5022 2.57465 17.5021 2.57466ZM6.68745 1C5.86204 1 5 1.59941 5 2.56008V14.4413C5 15.4019 5.86204 16.0014 6.68745 16.0014H17.3119C18.1373 16.0014 18.9994 15.4019 18.9994 14.4413V2.56008C18.9994 1.59941 18.1373 1 17.3119 1H6.68745ZM10.5842 6.68611L13.7064 8.267C13.7761 8.30225 13.8345 8.35498 13.8753 8.41952C13.916 8.48406 13.9375 8.55797 13.9375 8.6333C13.9375 8.70863 13.916 8.78254 13.8753 8.84708C13.8345 8.91162 13.7761 8.96435 13.7064 8.9996L10.5842 10.5805C10.5177 10.616 10.4426 10.6342 10.3664 10.6333C10.2903 10.6323 10.2157 10.6123 10.1502 10.5752C10.0847 10.5381 10.0305 10.4852 9.9932 10.4218C9.95588 10.3585 9.93668 10.2869 9.93753 10.2142V7.05241C9.93668 6.97973 9.95588 6.90812 9.9932 6.84475C10.0305 6.78139 10.0847 6.7285 10.1502 6.69139C10.2157 6.65428 10.2903 6.63426 10.3664 6.63333C10.4426 6.63241 10.5177 6.65061 10.5842 6.68611Z" fill="white"/>
</svg>
