<svg width="24" height="24" viewBox="0 0 24 24" fill="none" xmlns="http://www.w3.org/2000/svg">
<path fill-rule="evenodd" clip-rule="evenodd" d="M7.5 13.0854V11.7845L13.5 7.03531V8.99998H15V6.00187C15 5.16577 14.0349 4.69886 13.3794 5.21777L6.37936 10.7585C6.13974 10.9482 6 11.237 6 11.5426V13.3274C6 13.633 6.13974 13.9218 6.37936 14.1114L13.3794 19.6522C14.0349 20.1711 15 19.7042 15 18.8681V16H13.5V17.8346L7.5 13.0854Z" fill="white"/>
<path fill-rule="evenodd" clip-rule="evenodd" d="M18.0094 10.8534C18.2047 10.6582 18.2047 10.3417 18.0094 10.1464C17.8141 9.95119 17.4974 9.95119 17.3021 10.1464L15.6564 11.7916L14.0107 10.1464C13.8154 9.95119 13.4988 9.95119 13.3035 10.1464C13.1082 10.3417 13.1082 10.6582 13.3035 10.8534L14.9492 12.4986L13.3032 14.144C13.1079 14.3392 13.1079 14.6558 13.3032 14.851C13.4985 15.0462 13.8151 15.0462 14.0104 14.851L15.6564 13.2056L17.3024 14.851C17.4977 15.0462 17.8143 15.0462 18.0096 14.851C18.2049 14.6558 18.2049 14.3392 18.0096 14.144L16.3637 12.4986L18.0094 10.8534Z" fill="white"/>
<path d="M18.0094 10.8534L18.1861 11.0302L18.1861 11.0302L18.0094 10.8534ZM17.3021 10.1464L17.1254 9.96962L17.1254 9.96962L17.3021 10.1464ZM15.6564 11.7916L15.4797 11.9684L15.6564 12.1451L15.8332 11.9684L15.6564 11.7916ZM14.0107 10.1464L13.834 10.3232L13.834 10.3232L14.0107 10.1464ZM13.3035 10.1464L13.4802 10.3232L13.3035 10.1464ZM13.3035 10.8534L13.4802 10.6766L13.3035 10.8534ZM14.9492 12.4986L15.1259 12.6754L15.3028 12.4986L15.1259 12.3218L14.9492 12.4986ZM13.3032 14.144L13.48 14.3208L13.48 14.3208L13.3032 14.144ZM13.3032 14.851L13.48 14.6742L13.48 14.6742L13.3032 14.851ZM14.0104 14.851L13.8337 14.6742L13.8337 14.6742L14.0104 14.851ZM15.6564 13.2056L15.8332 13.0288L15.6564 12.8521L15.4797 13.0288L15.6564 13.2056ZM17.3024 14.851L17.1257 15.0278L17.1257 15.0278L17.3024 14.851ZM18.0096 14.851L18.1864 15.0278L18.1864 15.0278L18.0096 14.851ZM18.0096 14.144L18.1864 13.9672L18.1864 13.9672L18.0096 14.144ZM16.3637 12.4986L16.1869 12.3218L16.01 12.4986L16.1869 12.6754L16.3637 12.4986ZM17.8326 10.3232C17.9302 10.4208 17.9302 10.579 17.8326 10.6766L18.1861 11.0302C18.4791 10.7373 18.4791 10.2625 18.1861 9.96962L17.8326 10.3232ZM17.4789 10.3232C17.5766 10.2256 17.735 10.2256 17.8326 10.3232L18.1861 9.96962C17.8932 9.67679 17.4183 9.67679 17.1254 9.96962L17.4789 10.3232ZM15.8332 11.9684L17.4789 10.3232L17.1254 9.96962L15.4797 11.6148L15.8332 11.9684ZM13.834 10.3232L15.4797 11.9684L15.8332 11.6148L14.1875 9.96962L13.834 10.3232ZM13.4802 10.3232C13.5779 10.2256 13.7363 10.2256 13.834 10.3232L14.1875 9.96962C13.8945 9.67679 13.4197 9.67679 13.1267 9.96962L13.4802 10.3232ZM13.4802 10.6766C13.3826 10.579 13.3826 10.4208 13.4802 10.3232L13.1267 9.96962C12.8338 10.2625 12.8338 10.7373 13.1267 11.0302L13.4802 10.6766ZM15.1259 12.3218L13.4802 10.6766L13.1267 11.0302L14.7725 12.6754L15.1259 12.3218ZM13.48 14.3208L15.1259 12.6754L14.7725 12.3218L13.1265 13.9672L13.48 14.3208ZM13.48 14.6742C13.3823 14.5766 13.3823 14.4184 13.48 14.3208L13.1265 13.9672C12.8335 14.2601 12.8335 14.7349 13.1265 15.0278L13.48 14.6742ZM13.8337 14.6742C13.736 14.7718 13.5776 14.7718 13.48 14.6742L13.1265 15.0278C13.4194 15.3206 13.8943 15.3206 14.1872 15.0278L13.8337 14.6742ZM15.4797 13.0288L13.8337 14.6742L14.1872 15.0278L15.8332 13.3824L15.4797 13.0288ZM17.4792 14.6742L15.8332 13.0288L15.4797 13.3824L17.1257 15.0278L17.4792 14.6742ZM17.8329 14.6742C17.7352 14.7718 17.5768 14.7718 17.4792 14.6742L17.1257 15.0278C17.4186 15.3206 17.8935 15.3206 18.1864 15.0278L17.8329 14.6742ZM17.8329 14.3208C17.9305 14.4184 17.9305 14.5766 17.8329 14.6742L18.1864 15.0278C18.4794 14.7349 18.4794 14.2601 18.1864 13.9672L17.8329 14.3208ZM16.1869 12.6754L17.8329 14.3208L18.1864 13.9672L16.5404 12.3218L16.1869 12.6754ZM17.8326 10.6766L16.1869 12.3218L16.5404 12.6754L18.1861 11.0302L17.8326 10.6766Z" fill="white"/>
</svg>
